<svg width="126" height="94" viewBox="0 0 126 94" fill="none" xmlns="http://www.w3.org/2000/svg">
<path d="M33.8832 66.0198H28.126V69.7724H33.8832V66.0198Z" fill="#F1F2F2"/>
<path d="M44.5038 66.0198H38.7466V69.7724H44.5038V66.0198Z" fill="#F1F2F2"/>
<path d="M37.7451 66.0198H34.8665V69.7724H37.7451V66.0198Z" fill="#F1F2F2"/>
<path d="M43.9316 78.1137H43.2164C41.9827 78.1137 40.9814 77.1177 40.9814 75.8906V75.1792C40.9814 73.952 41.9827 72.9561 43.2164 72.9561H43.9316C45.1653 72.9561 46.1665 73.952 46.1665 75.1792V75.8906C46.1487 77.1177 45.1653 78.1137 43.9316 78.1137Z" fill="#F1F2F2"/>
<path d="M59.0218 53.2681H28.126V54.1217H59.0218V53.2681Z" fill="#F1F2F2"/>
<path d="M59.0218 55.1175H28.126V55.9712H59.0218V55.1175Z" fill="#F1F2F2"/>
<path d="M59.0218 56.9494H28.126V57.8031H59.0218V56.9494Z" fill="#F1F2F2"/>
<path d="M59.0218 58.7992H28.126V59.6529H59.0218V58.7992Z" fill="#F1F2F2"/>
<path d="M59.0218 60.6488H28.126V61.5025H59.0218V60.6488Z" fill="#F1F2F2"/>
<path d="M59.0218 62.4806H28.126V63.3342H59.0218V62.4806Z" fill="#F1F2F2"/>
<path opacity="0.2" d="M7.85061 32.6553C7.88638 36.6569 19.5617 36.8525 20.6344 42.5259C21.9218 49.2842 6.24147 53.8015 6.31299 64.0812C6.33086 67.8871 8.51216 72.3689 11.8199 73.5072C18.2029 75.6948 22.8515 62.8006 32.6494 62.9073C44.2355 63.0497 47.5074 77.8112 57.4484 77.3487C68.641 76.8508 71.3407 56.7005 81.5321 56.5759C91.491 56.4514 94.9418 75.4635 104.525 74.8766C111.784 74.432 118.078 62.9963 118.561 53.4102C118.668 51.3472 119.133 41.6899 113.072 37.1192C106.599 32.2639 97.731 36.817 95.5496 32.9577C93.3504 29.116 101.164 23.0692 99.054 19.4767C97.2303 16.382 90.8295 19.779 81.0673 18.0894C68.1403 15.8663 64.3857 7.31173 58.2709 9.67713C52.7461 11.8113 54.6234 19.2454 47.865 22.9625C42.823 25.7369 39.6941 22.7135 30.1642 23.247C19.2219 23.8517 7.81486 28.6893 7.85061 32.6553Z" fill="#FFC7A8"/>
<path d="M81.2285 83.4491H10.5865C10.5328 83.4491 10.4971 83.4136 10.4971 83.3601C10.4971 83.3069 10.5328 83.2713 10.5865 83.2713H81.2285C81.2821 83.2713 81.3178 83.3069 81.3178 83.3601C81.3178 83.4136 81.2821 83.4491 81.2285 83.4491Z" fill="#2F5373"/>
<path d="M28.0725 14.9594H21.9577C21.618 14.9594 21.3318 14.6748 21.3318 14.3369C21.3318 13.999 21.618 13.7144 21.9577 13.7144H28.0725C28.4122 13.7144 28.6982 13.999 28.6982 14.3369C28.6982 14.6748 28.4122 14.9594 28.0725 14.9594Z" fill="#F3E6DE"/>
<path d="M64.2247 14.9594H58.1099C57.7701 14.9594 57.4841 14.6748 57.4841 14.3369C57.4841 13.999 57.7701 13.7144 58.1099 13.7144H64.2247C64.5644 13.7144 64.8504 13.999 64.8504 14.3369C64.8684 14.6748 64.5822 14.9594 64.2247 14.9594Z" fill="#F3E6DE"/>
<path d="M81.6574 39.0581H80.5845V39.4137H81.6574V39.0581Z" fill="#FFC7A8"/>
<path d="M112.142 39.4137H109.96V39.0581H112.142V39.4137ZM107.779 39.4137H105.598V39.0581H107.779V39.4137ZM103.434 39.4137H101.253V39.0581H103.434V39.4137ZM99.0719 39.4137H96.8906V39.0581H99.0719V39.4137ZM94.7272 39.4137H92.5459V39.0581H94.7272V39.4137ZM90.3646 39.4137H88.1833V39.0581H90.3646V39.4137ZM86.0198 39.4137H83.8386V39.0581H86.0198V39.4137Z" fill="#FFC7A8"/>
<path d="M115.378 39.0581H114.305V39.4137H115.378V39.0581Z" fill="#FFC7A8"/>
<path d="M105.866 13.5721V33.3844C105.866 33.7224 105.795 34.0426 105.652 34.3271C105.294 35.0385 104.561 35.5543 103.703 35.5543H83.7671C82.5513 35.5543 81.5857 34.576 81.5857 33.3844V13.5721C81.5857 12.3627 82.5691 11.4023 83.7671 11.4023H103.685C104.901 11.3846 105.866 12.3627 105.866 13.5721Z" fill="#F1F2F2"/>
<path opacity="0.16" d="M100.234 14.8526C99.8943 13.75 98.7678 13.0208 97.6236 12.8429C97.9276 12.7362 97.9811 12.2738 97.7844 12.0071C97.5879 11.7403 97.2481 11.6336 96.9084 11.5802C96.7296 11.5446 96.5507 11.5091 96.3899 11.4913C95.4244 11.3668 94.5483 10.851 93.9762 10.0863C93.0106 8.7702 91.0081 7.25848 88.058 9.01919C86.9853 8.61014 85.6264 8.85913 85.0186 9.96179C84.9291 10.1396 84.8576 10.3353 84.8219 10.5309C84.6431 11.598 84.9471 13.2698 85.6979 13.6966C86.1806 13.9812 86.878 14.1946 87.6647 14.3547C87.0747 16.4356 85.3224 22.9626 85.9483 23.3361C86.3416 23.5672 88.2905 23.9763 90.2036 24.1542L90.3109 24.9545L90.7221 28.1558C90.9187 29.6496 92.2776 30.699 93.7795 30.5033C95.2814 30.3078 96.3362 28.9561 96.1396 27.4621L95.4422 22.0378L95.3707 21.5398C95.5495 21.1307 95.7105 20.704 95.8714 20.277C96.4257 20.4372 97.0872 20.0637 97.2302 19.4945C98.1421 19.3878 99.1433 19.2277 99.6976 18.5163C100.073 18.0361 100.163 17.4136 100.234 16.8268C100.359 16.1865 100.431 15.4929 100.234 14.8526Z" fill="#232323"/>
<path opacity="0.16" d="M105.866 32.2285V33.3846C105.866 33.7225 105.795 34.0426 105.652 34.3272C105.294 35.0385 104.561 35.5542 103.703 35.5542L99.0723 25.6125C100.324 25.6659 101.933 26.3595 102.845 27.1065C103.989 28.0491 105.169 30.4322 105.866 32.2285Z" fill="#232323"/>
<path d="M106.832 37.4037H88.2192C86.9318 37.4037 85.8948 36.3722 85.8948 35.0916V16.5954C85.8948 15.3148 86.9318 14.2833 88.2192 14.2833H106.832C108.119 14.2833 109.156 15.3148 109.156 16.5954V35.1095C109.156 36.3722 108.119 37.4037 106.832 37.4037ZM88.2192 14.5501C87.0927 14.5501 86.163 15.4571 86.163 16.5954V35.1095C86.163 36.23 87.0749 37.1548 88.2192 37.1548H106.832C107.958 37.1548 108.888 36.2477 108.888 35.1095V16.5954C108.888 15.4749 107.976 14.5501 106.832 14.5501H88.2192Z" fill="#232323"/>
<path d="M123.728 18.4273H118.972C118.596 18.4273 118.274 18.1249 118.274 17.7337V13.0207C118.274 12.6472 118.578 12.3271 118.972 12.3271H123.728C124.103 12.3271 124.425 12.6294 124.425 13.0207V17.7337C124.425 18.1249 124.121 18.4273 123.728 18.4273ZM118.99 12.5939C118.757 12.5939 118.56 12.7895 118.56 13.0207V17.7337C118.56 17.965 118.757 18.1605 118.99 18.1605H123.745C123.978 18.1605 124.175 17.965 124.175 17.7337V13.0207C124.175 12.7895 123.978 12.5939 123.745 12.5939H118.99Z" fill="#232323"/>
<path d="M123.728 27.0884H118.972C118.596 27.0884 118.274 26.7862 118.274 26.3949V21.6819C118.274 21.3084 118.578 20.9883 118.972 20.9883H123.728C124.103 20.9883 124.425 21.2907 124.425 21.6819V26.4127C124.425 26.7862 124.121 27.0884 123.728 27.0884ZM118.99 21.2551C118.757 21.2551 118.56 21.4506 118.56 21.6819V26.4127C118.56 26.6438 118.757 26.8395 118.99 26.8395H123.745C123.978 26.8395 124.175 26.6438 124.175 26.4127V21.6819C124.175 21.4506 123.978 21.2551 123.745 21.2551H118.99Z" fill="#232323"/>
<path d="M123.728 35.7499H118.972C118.596 35.7499 118.274 35.4476 118.274 35.0562V30.3255C118.274 29.952 118.578 29.6319 118.972 29.6319H123.728C124.103 29.6319 124.425 29.9343 124.425 30.3255V35.0562C124.425 35.4476 124.121 35.7499 123.728 35.7499ZM118.99 29.9164C118.757 29.9164 118.56 30.1121 118.56 30.3432V35.0741C118.56 35.3053 118.757 35.5008 118.99 35.5008H123.745C123.978 35.5008 124.175 35.3053 124.175 35.0741V30.3432C124.175 30.1121 123.978 29.9164 123.745 29.9164H118.99Z" fill="#232323"/>
<path d="M123.352 11.9535V17.0044C123.352 17.0934 123.334 17.1645 123.299 17.2534C123.209 17.4313 123.013 17.5736 122.798 17.5736H117.72C117.416 17.5736 117.166 17.3247 117.166 17.0223V11.9535C117.166 11.6512 117.416 11.4022 117.72 11.4022H122.798C123.102 11.3844 123.352 11.6334 123.352 11.9535Z" fill="#F1F2F2"/>
<path d="M123.352 20.615V25.6658C123.352 25.7547 123.334 25.8259 123.299 25.9149C123.209 26.0927 123.013 26.2349 122.798 26.2349H117.72C117.416 26.2349 117.166 25.986 117.166 25.6836V20.615C117.166 20.3126 117.416 20.0635 117.72 20.0635H122.798C123.102 20.0635 123.352 20.3126 123.352 20.615Z" fill="#F1F2F2"/>
<path d="M123.352 29.276V34.3269C123.352 34.4159 123.334 34.487 123.299 34.576C123.209 34.7538 123.013 34.8961 122.798 34.8961H117.72C117.416 34.8961 117.166 34.6472 117.166 34.3448V29.2939C117.166 28.9915 117.416 28.7425 117.72 28.7425H122.798C123.102 28.7247 123.352 28.9738 123.352 29.276Z" fill="#F1F2F2"/>
<path d="M123.728 46.9542H118.972C118.668 46.9542 118.418 46.7053 118.418 46.4029V41.6722C118.418 41.3699 118.668 41.1209 118.972 41.1209H123.728C124.032 41.1209 124.282 41.3699 124.282 41.6722V46.4029C124.3 46.7053 124.05 46.9542 123.728 46.9542Z" fill="#FFC7A8"/>
<path d="M123.728 55.6334H118.972C118.668 55.6334 118.418 55.3845 118.418 55.0821V50.3513C118.418 50.0489 118.668 49.8 118.972 49.8H123.728C124.032 49.8 124.282 50.0489 124.282 50.3513V55.0821C124.3 55.3845 124.05 55.6334 123.728 55.6334Z" fill="#FFC7A8"/>
<path d="M123.728 64.2948H118.972C118.668 64.2948 118.418 64.0458 118.418 63.7434V59.0126C118.418 58.7104 118.668 58.4613 118.972 58.4613H123.728C124.032 58.4613 124.282 58.7104 124.282 59.0126V63.7434C124.3 64.0458 124.05 64.2948 123.728 64.2948Z" fill="#FFC7A8"/>
<path d="M122.798 46.3497H117.72C117.345 46.3497 117.023 46.0475 117.023 45.6561V40.6052C117.023 40.2317 117.327 39.9116 117.72 39.9116H122.798C123.173 39.9116 123.495 40.214 123.495 40.6052V45.6561C123.495 45.7628 123.477 45.8695 123.424 45.9585C123.299 46.2074 123.066 46.3497 122.798 46.3497ZM117.72 40.1961C117.488 40.1961 117.291 40.3918 117.291 40.623V45.674C117.291 45.9051 117.488 46.1007 117.72 46.1007H122.798C122.959 46.1007 123.102 46.0117 123.173 45.8695C123.209 45.8162 123.209 45.7451 123.209 45.6917V40.6407C123.209 40.4095 123.013 40.214 122.78 40.214H117.72V40.1961Z" fill="#232323"/>
<path d="M122.798 55.0288H117.72C117.345 55.0288 117.023 54.7265 117.023 54.3353V49.2844C117.023 48.9109 117.327 48.5906 117.72 48.5906H122.798C123.173 48.5906 123.495 48.893 123.495 49.2844V54.3353C123.495 54.442 123.477 54.5487 123.424 54.6375C123.299 54.8687 123.066 55.0288 122.798 55.0288ZM117.72 48.8574C117.488 48.8574 117.291 49.0531 117.291 49.2844V54.3353C117.291 54.5664 117.488 54.762 117.72 54.762H122.798C122.959 54.762 123.102 54.6731 123.173 54.5308C123.209 54.4775 123.209 54.4064 123.209 54.353V49.3021C123.209 49.0708 123.013 48.8753 122.78 48.8753H117.72V48.8574Z" fill="#232323"/>
<path d="M122.798 63.69H117.72C117.345 63.69 117.023 63.3876 117.023 62.9965V57.9455C117.023 57.572 117.327 57.252 117.72 57.252H122.798C123.173 57.252 123.495 57.5542 123.495 57.9455V62.9965C123.495 63.1031 123.477 63.2098 123.424 63.2988C123.299 63.5299 123.066 63.69 122.798 63.69ZM117.72 57.5186C117.488 57.5186 117.291 57.7143 117.291 57.9455V62.9965C117.291 63.2275 117.488 63.4232 117.72 63.4232H122.798C122.959 63.4232 123.102 63.3344 123.173 63.192C123.209 63.1387 123.209 63.0676 123.209 63.0142V57.9632C123.209 57.7321 123.013 57.5365 122.78 57.5365H117.72V57.5186Z" fill="#232323"/>
<path d="M61.8825 37.6705H61.7573V19.5655H61.8825C62.544 19.5655 63.0805 20.0989 63.0805 20.7571V36.4789C63.0805 37.1369 62.544 37.6705 61.8825 37.6705Z" fill="#F1F2F2"/>
<path d="M25.2473 57.2339H25.3726V75.339H25.2473C24.5858 75.339 24.0496 74.8055 24.0496 74.1474V58.4256C24.0496 57.7676 24.5858 57.2339 25.2473 57.2339Z" fill="#F1F2F2"/>
<path d="M20.9565 46.1363V27.3554C20.9565 26.5373 21.618 25.8793 22.4405 25.8793H54.3198C55.1422 25.8793 55.8037 26.5373 55.8037 27.3554V46.1363C55.8037 46.9544 55.1422 47.6124 54.3198 47.6124H22.4405C21.618 47.6124 20.9565 46.9544 20.9565 46.1363Z" fill="#2F5373"/>
<path opacity="0.1" d="M25.5158 25.8793H25.2476V47.6124H25.5158V25.8793Z" fill="#D8D8D8"/>
<path d="M61.3999 25.4347L72.6282 35.0207C72.6282 35.0207 78.01 48.9997 72.5747 56.5048L68.1584 59.5816L69.8391 43.2195L61.7396 31.855L61.3999 25.4347Z" fill="#F3E6DE"/>
<path d="M34.6699 35.6965H23.6741C23.0841 35.6965 22.6191 35.2163 22.6191 34.6471V28.5292C22.6191 27.9423 23.1019 27.4798 23.6741 27.4798H34.6699C35.2599 27.4798 35.7249 27.96 35.7249 28.5292V34.6294C35.7249 35.2163 35.2599 35.6965 34.6699 35.6965Z" fill="#F3E6DE"/>
<path d="M52.174 14.6036H34.9561C32.721 14.6036 30.9331 12.8073 30.9331 10.602V8.68121H56.2148V10.5842C56.2148 12.8073 54.409 14.6036 52.174 14.6036Z" fill="#F3E6DE"/>
<path d="M25.3906 26.0216C25.3191 26.0216 25.2476 25.9681 25.2476 25.8793V22.02C25.2476 21.9488 25.3013 21.8777 25.3906 21.8777C25.48 21.8777 25.5336 21.931 25.5336 22.02V25.8793C25.5158 25.9504 25.4621 26.0216 25.3906 26.0216Z" fill="#232323"/>
<path d="M58.4677 80.7457H28.6626C26.7852 80.7457 25.2475 79.2161 25.2475 77.3487V47.6122C25.2475 47.5411 25.3012 47.47 25.3907 47.47C25.48 47.47 25.5337 47.5234 25.5337 47.6122V77.331C25.5337 79.056 26.9462 80.461 28.6804 80.461H58.4857C60.2199 80.461 61.6324 79.056 61.6324 77.331V14.6569C61.6324 12.9317 60.2199 11.5267 58.4857 11.5267H28.6626C26.9282 11.5267 25.5158 12.9317 25.5158 14.6569V18.3561C25.5158 18.4273 25.4622 18.4984 25.3727 18.4984C25.2834 18.4984 25.2297 18.445 25.2297 18.3561V14.6569C25.2297 12.7895 26.7674 11.2599 28.6447 11.2599H58.4498C60.3272 11.2599 61.8649 12.7895 61.8649 14.6569V77.331C61.8827 79.2161 60.3629 80.7457 58.4677 80.7457Z" fill="#232323"/>
<path d="M8.92334 26.0037V60.6665H17.8453V26.0037H8.92334ZM12.5708 29.7742H10.2464V27.4621H12.5708V29.7742Z" fill="#FFC7A8"/>
<path d="M54.7488 47.1499H41.7863C41.7148 47.1499 41.6433 47.0965 41.6433 47.0075C41.6433 46.9187 41.6968 46.8653 41.7863 46.8653H54.7488C55.5893 46.8653 56.2686 46.1896 56.2686 45.3536V26.9285C56.2686 26.0925 55.5893 25.4166 54.7488 25.4166H28.1621C28.0905 25.4166 28.019 25.3634 28.019 25.2744C28.019 25.1856 28.0726 25.1321 28.1621 25.1321H54.7488C55.7323 25.1321 56.5368 25.9324 56.5368 26.9106V45.3536C56.5368 46.3674 55.7323 47.1499 54.7488 47.1499Z" fill="#232323"/>
<path d="M27.4824 29.7742V33.3312C27.4824 33.598 27.7864 33.7758 28.0189 33.6157L30.6113 31.9262C30.808 31.8016 30.8258 31.4993 30.6293 31.357L28.0367 29.4895C27.8042 29.3296 27.4824 29.4895 27.4824 29.7742Z" fill="#FFC7A8"/>
<path d="M54.3019 32.2105V34.6116C54.3019 34.9672 54.0157 35.2517 53.6582 35.2517H50.1896C49.8319 35.2517 49.5459 34.9672 49.5459 34.6116V32.2105C49.5459 31.8549 49.8319 31.5704 50.1896 31.5704H53.6582C54.0157 31.5704 54.3019 31.8549 54.3019 32.2105Z" fill="#F3E6DE"/>
<path d="M51.459 32.7977V34.1316C51.459 34.2383 51.5662 34.2917 51.6557 34.2383L52.6212 33.5981C52.6927 33.5447 52.6927 33.438 52.6212 33.3846L51.6557 32.691C51.5842 32.6199 51.459 32.691 51.459 32.7977Z" fill="#FFC7A8"/>
<path d="M48.2941 32.2105V34.6116C48.2941 34.9672 48.0081 35.2517 47.6504 35.2517H44.1818C43.8243 35.2517 43.5381 34.9672 43.5381 34.6116V32.2105C43.5381 31.8549 43.8243 31.5704 44.1818 31.5704H47.6504C48.0081 31.5704 48.2941 31.8549 48.2941 32.2105Z" fill="#F3E6DE"/>
<path d="M45.4692 32.7977V34.1316C45.4692 34.2383 45.5765 34.2917 45.6658 34.2383L46.6313 33.5981C46.7029 33.5447 46.7029 33.438 46.6313 33.3846L45.6658 32.691C45.5765 32.6199 45.4692 32.691 45.4692 32.7977Z" fill="#FFC7A8"/>
<path d="M42.2866 32.2105V34.6116C42.2866 34.9672 42.0006 35.2517 41.6431 35.2517H38.1745C37.8168 35.2517 37.5308 34.9672 37.5308 34.6116V32.2105C37.5308 31.8549 37.8168 31.5704 38.1745 31.5704H41.6431C42.0006 31.5704 42.2866 31.8549 42.2866 32.2105Z" fill="#F3E6DE"/>
<path d="M39.4617 32.7977V34.1316C39.4617 34.2383 39.5689 34.2917 39.6584 34.2383L40.6239 33.5981C40.6954 33.5447 40.6954 33.438 40.6239 33.3846L39.6584 32.691C39.5689 32.6199 39.4617 32.691 39.4617 32.7977Z" fill="#FFC7A8"/>
<path d="M54.3019 37.0304V39.4313C54.3019 39.7871 54.0157 40.0716 53.6582 40.0716H50.1896C49.8319 40.0716 49.5459 39.7871 49.5459 39.4313V37.0304C49.5459 36.6747 49.8319 36.3901 50.1896 36.3901H53.6582C54.0157 36.3723 54.3019 36.6747 54.3019 37.0304Z" fill="#F3E6DE"/>
<path d="M51.459 37.5995V38.9334C51.459 39.0402 51.5662 39.0935 51.6557 39.0402L52.6212 38.3999C52.6927 38.3465 52.6927 38.2398 52.6212 38.1866L51.6557 37.4928C51.5842 37.4396 51.459 37.4928 51.459 37.5995Z" fill="#FFC7A8"/>
<path d="M48.2941 37.0304V39.4313C48.2941 39.7871 48.0081 40.0716 47.6504 40.0716H44.1818C43.8243 40.0716 43.5381 39.7871 43.5381 39.4313V37.0304C43.5381 36.6747 43.8243 36.3901 44.1818 36.3901H47.6504C48.0081 36.3723 48.2941 36.6747 48.2941 37.0304Z" fill="#F3E6DE"/>
<path d="M45.4692 37.5995V38.9334C45.4692 39.0402 45.5765 39.0935 45.6658 39.0402L46.6313 38.3999C46.7029 38.3465 46.7029 38.2398 46.6313 38.1866L45.6658 37.4928C45.5765 37.4396 45.4692 37.4928 45.4692 37.5995Z" fill="#FFC7A8"/>
<path d="M42.2866 37.0304V39.4313C42.2866 39.7871 42.0006 40.0716 41.6431 40.0716H38.1745C37.8168 40.0716 37.5308 39.7871 37.5308 39.4313V37.0304C37.5308 36.6747 37.8168 36.3901 38.1745 36.3901H41.6431C42.0006 36.3723 42.2866 36.6747 42.2866 37.0304Z" fill="#F3E6DE"/>
<path d="M39.4617 37.5995V38.9334C39.4617 39.0402 39.5689 39.0935 39.6584 39.0402L40.6239 38.3999C40.6954 38.3465 40.6954 38.2398 40.6239 38.1866L39.6584 37.4928C39.5689 37.4396 39.4617 37.4928 39.4617 37.5995Z" fill="#FFC7A8"/>
<path d="M54.3019 41.8323V44.2334C54.3019 44.5891 54.0157 44.8737 53.6582 44.8737H50.1896C49.8319 44.8737 49.5459 44.5891 49.5459 44.2334V41.8323C49.5459 41.4767 49.8319 41.1922 50.1896 41.1922H53.6582C54.0157 41.1922 54.3019 41.4767 54.3019 41.8323Z" fill="#F3E6DE"/>
<path d="M51.459 42.4192V43.7531C51.459 43.8598 51.5662 43.9132 51.6557 43.8598L52.6212 43.2195C52.6927 43.1662 52.6927 43.0595 52.6212 43.0061L51.6557 42.3125C51.5842 42.2591 51.459 42.3125 51.459 42.4192Z" fill="#FFC7A8"/>
<path d="M48.2941 41.8323V44.2334C48.2941 44.5891 48.0081 44.8737 47.6504 44.8737H44.1818C43.8243 44.8737 43.5381 44.5891 43.5381 44.2334V41.8323C43.5381 41.4767 43.8243 41.1922 44.1818 41.1922H47.6504C48.0081 41.1922 48.2941 41.4767 48.2941 41.8323Z" fill="#F3E6DE"/>
<path d="M45.4692 42.4192V43.7531C45.4692 43.8598 45.5765 43.9132 45.6658 43.8598L46.6313 43.2195C46.7029 43.1662 46.7029 43.0595 46.6313 43.0061L45.6658 42.3125C45.5765 42.2591 45.4692 42.3125 45.4692 42.4192Z" fill="#FFC7A8"/>
<path d="M41.6431 41.1922H38.1745C37.8168 41.1922 37.5308 41.4767 37.5308 41.8323V44.2334C37.5308 44.5891 37.8168 44.8737 38.1745 44.8737H41.6431C42.0006 44.8737 42.2866 44.5891 42.2866 44.2334V41.8323C42.2866 41.4767 42.0006 41.1922 41.6431 41.1922ZM40.6239 43.2196L39.6584 43.8599C39.569 43.9132 39.4617 43.8599 39.4617 43.7532V42.4194C39.4617 42.3127 39.5869 42.2593 39.6762 42.3127L40.6417 43.0062C40.7132 43.0595 40.7132 43.1664 40.6239 43.2196Z" fill="#FFC7A8"/>
<path d="M40.6239 43.2195L39.6584 43.8598C39.5689 43.9132 39.4617 43.8598 39.4617 43.7531V42.4192C39.4617 42.3125 39.5867 42.2591 39.6762 42.3125L40.6417 43.0061C40.7132 43.0595 40.7132 43.1662 40.6239 43.2195Z" fill="#F3E6DE"/>
<path d="M55.8036 49.6398V49.7288C55.8036 49.9601 55.6069 50.1557 55.3746 50.1557H34.3481C34.4376 50.0489 34.4912 49.9066 34.4912 49.7644V49.6221C34.4912 49.462 34.4376 49.3198 34.3481 49.2131H55.3923C55.6069 49.2131 55.8036 49.4087 55.8036 49.6398Z" fill="#F3E6DE"/>
<path d="M31.0584 50.1557H21.3857C21.1533 50.1557 20.9565 49.9601 20.9565 49.7288V49.6398C20.9565 49.4087 21.1533 49.2131 21.3857 49.2131H31.0584C31.2909 49.2131 31.4876 49.4087 31.4876 49.6398V49.7288C31.4876 49.9778 31.2909 50.1557 31.0584 50.1557Z" fill="#2F5373"/>
<path d="M34.4911 49.6221V49.7644C34.4911 49.9066 34.4374 50.0491 34.3481 50.1557C34.2408 50.298 34.0441 50.4047 33.8474 50.4047H31.0403C30.6827 50.4047 30.3967 50.1202 30.3967 49.7644V49.6221C30.3967 49.2665 30.6827 48.9818 31.0403 48.9818H33.8474C34.0441 48.9818 34.2229 49.0708 34.3481 49.2131C34.4374 49.3376 34.4911 49.4799 34.4911 49.6221Z" fill="#FFC7A8"/>
<path opacity="0.4" d="M35.5998 36.8883H22.7623C22.6728 36.8883 22.6013 36.8171 22.6013 36.7281V36.6926C22.6013 36.6037 22.6728 36.5326 22.7623 36.5326H35.5998C35.6891 36.5326 35.7606 36.6037 35.7606 36.6926V36.7281C35.7606 36.8171 35.6891 36.8883 35.5998 36.8883Z" fill="#F1F2F2"/>
<path d="M27.6076 36.9771H26.5706C26.4454 36.9771 26.3381 36.8702 26.3381 36.7458V36.6924C26.3381 36.568 26.4454 36.4612 26.5706 36.4612H27.6076C27.7328 36.4612 27.8401 36.568 27.8401 36.6924V36.7458C27.8401 36.8881 27.7328 36.9771 27.6076 36.9771Z" fill="#FFC7A8"/>
<path d="M73.7548 44.091C70.3935 31.0548 64.9402 23.2471 62.6158 21.5398C60.4524 19.957 57.7169 19.7613 57.2877 20.3126C57.0195 20.6505 58.4499 22.1266 59.0042 22.7314C63.7245 27.9423 66.6566 39.3247 63.0092 48.2171C61.0068 53.0903 56.5905 58.319 53.5689 57.6076C52.3709 57.3231 37.4594 43.3619 36.047 44.7313C35.2603 45.496 37.4057 47.8436 39.9089 53.5526C41.5538 57.3052 44.039 65.2551 43.5385 73.5429C43.3597 76.6018 42.5372 82.0441 38.5322 88.3576L63.1523 88.0376C63.1523 88.0376 74.4878 65.7887 76.3473 51.4006C76.7943 47.8971 74.3628 46.4742 73.7548 44.091Z" fill="#FFC7A8"/>
<path d="M65.6732 43.9488C65.5837 43.9309 65.5302 43.8776 65.548 43.8065C66.1559 38.5066 63.921 31.446 62.0794 28.3692C62.0436 28.2981 62.0616 28.2269 62.1331 28.1914C62.2046 28.1558 62.2761 28.1735 62.3119 28.2447C64.1713 31.357 66.4242 38.5066 65.8162 43.8421C65.7984 43.8953 65.7447 43.9488 65.6732 43.9488Z" fill="#232323"/>
<path d="M12.5709 27.4621H10.2466V29.7742H12.5709V27.4621Z" fill="#F3E6DE"/>
<path opacity="0.77" d="M16.8084 32.6555H10.2466V33.4736H16.8084V32.6555Z" fill="#F1F2F2"/>
<path opacity="0.77" d="M16.8084 34.4516H10.2466V35.2697H16.8084V34.4516Z" fill="#F1F2F2"/>
<path opacity="0.77" d="M16.8084 36.2478H10.2466V37.0659H16.8084V36.2478Z" fill="#F1F2F2"/>
<path opacity="0.77" d="M16.8084 38.0442H10.2466V38.8623H16.8084V38.0442Z" fill="#F1F2F2"/>
<path opacity="0.77" d="M16.8084 39.8582H10.2466V40.6763H16.8084V39.8582Z" fill="#F1F2F2"/>
<path opacity="0.77" d="M16.8084 41.6545H10.2466V42.4727H16.8084V41.6545Z" fill="#F1F2F2"/>
<path opacity="0.77" d="M16.8084 43.4507H10.2466V44.2688H16.8084V43.4507Z" fill="#F1F2F2"/>
<path opacity="0.77" d="M16.8084 47.0611H10.2466V47.8792H16.8084V47.0611Z" fill="#F1F2F2"/>
<path opacity="0.77" d="M16.8084 48.8573H10.2466V49.6754H16.8084V48.8573Z" fill="#F1F2F2"/>
<path opacity="0.77" d="M16.8084 50.6535H10.2466V51.4716H16.8084V50.6535Z" fill="#F1F2F2"/>
<path opacity="0.77" d="M16.8084 52.45H10.2466V53.2681H16.8084V52.45Z" fill="#F1F2F2"/>
<path opacity="0.77" d="M16.8084 54.264H10.2466V55.0821H16.8084V54.264Z" fill="#F1F2F2"/>
<path opacity="0.77" d="M16.8084 56.0604H10.2466V56.8785H16.8084V56.0604Z" fill="#F1F2F2"/>
<path d="M16.8084 62.5518H10.2466V63.3699H16.8084V62.5518Z" fill="#FFC7A8"/>
<path d="M16.8084 64.2947H10.2466V65.1129H16.8084V64.2947Z" fill="#FFC7A8"/>
<path opacity="0.77" d="M92.5998 41.2632H86.0378V42.0813H92.5998V41.2632Z" fill="#2F5373"/>
<path opacity="0.77" d="M95.7107 43.0597H86.0378V43.8778H95.7107V43.0597Z" fill="#2F5373"/>
<path opacity="0.77" d="M95.7107 44.8557H86.0378V45.6738H95.7107V44.8557Z" fill="#2F5373"/>
<path d="M109.192 78.256H87.2178V79.0741H109.192V78.256Z" fill="#2F5373"/>
<path d="M109.192 80.0523H87.2178V80.8704H109.192V80.0523Z" fill="#2F5373"/>
<path d="M54.1406 22.1445H22.619C21.6356 22.1445 20.8311 21.3441 20.8311 20.3661V19.9926C20.8311 19.0143 21.6356 18.2141 22.619 18.2141H54.1406C55.124 18.2141 55.9285 19.0143 55.9285 19.9926V20.3661C55.9285 21.362 55.1418 22.1445 54.1406 22.1445ZM22.619 18.4986C21.7787 18.4986 21.0993 19.1744 21.0993 20.0103V20.3838C21.0993 21.2197 21.7787 21.8956 22.619 21.8956H54.1406C54.981 21.8956 55.6603 21.2197 55.6603 20.3838V20.0103C55.6603 19.1744 54.981 18.4986 54.1406 18.4986H22.619Z" fill="#232323"/>
<path opacity="0.2" d="M25.5158 18.2673H25.2476V21.931H25.5158V18.2673Z" fill="#232323"/>
<path d="M24.9436 44.6602H23.4417C23.2094 44.6602 23.0127 44.4645 23.0127 44.2333V42.7394C23.0127 42.5082 23.2094 42.3125 23.4417 42.3125H24.9436C25.1761 42.3125 25.3728 42.5082 25.3728 42.7394V44.2333C25.3728 44.4645 25.1761 44.6602 24.9436 44.6602Z" fill="#FFC7A8"/>
<path d="M30.1286 42.4904H26.1057V42.8816H30.1286V42.4904Z" fill="#FFC7A8"/>
<path d="M27.4824 43.2908H26.1057V43.6821H27.4824V43.2908Z" fill="#FFC7A8"/>
<path d="M26.6242 37.6707H22.6013V38.062H26.6242V37.6707Z" fill="#FFC7A8"/>
<path d="M23.978 38.4532H22.6013V38.8446H23.978V38.4532Z" fill="#FFC7A8"/>
<path d="M32.8998 44.0732H26.1057V44.4645H32.8998V44.0732Z" fill="#FFC7A8"/>
<path d="M54.4806 27.4621H45.8091V28.9916H54.4806V27.4621Z" fill="#FFC7A8"/>
<path d="M102.165 26.9999C101.164 26.4131 99.5726 25.5415 98.3389 25.4883C94.7095 25.3281 85.7518 24.7413 83.4274 26.9109C81.6573 28.565 80.7455 31.0015 80.2806 32.78C79.9588 33.9895 80.7991 35.1988 82.0685 35.3233C82.7659 35.3944 84.1962 35.4833 85.9843 35.59L106.17 35.5367C106.17 35.5544 104.883 28.6006 102.165 26.9999Z" fill="#3A8652"/>
<path d="M92.9036 29.5429C91.4016 29.7385 90.0427 28.6714 89.864 27.1953L89.4527 23.994L89.0952 21.1306L94.5127 20.4547L94.602 21.0773L95.2995 26.5017C95.4603 27.9955 94.4053 29.365 92.9036 29.5429Z" fill="#FFBF85"/>
<path opacity="0.4" d="M94.5842 21.095C94.1193 22.2155 93.583 23.1937 93.1896 23.6205C92.7426 24.1007 91.1334 24.1362 89.4527 23.994L89.0952 21.1306L94.5127 20.4547L94.5842 21.095Z" fill="#232323"/>
<path d="M86.9854 12.7539C86.9854 12.7539 84.3393 21.931 85.0902 22.3756C85.8412 22.8202 92.2779 23.8873 93.2612 22.8202C94.2446 21.7709 96.0683 17.2535 95.6034 15.8307C95.1386 14.4079 89.8463 11.9358 86.9854 12.7539Z" fill="#FFBF85"/>
<path d="M85.3225 12.9673C84.5716 12.5405 84.2676 10.8509 84.4464 9.80161C84.4821 9.60596 84.5358 9.41033 84.6431 9.23248C85.251 8.11204 86.6098 7.88083 87.6827 8.28988C90.6148 6.52917 92.6353 8.04089 93.6007 9.35697C94.1729 10.1395 95.0489 10.6375 96.0144 10.762C96.1932 10.7798 96.3721 10.8153 96.5329 10.8509C96.8548 10.9221 97.1946 11.0288 97.4091 11.2778C97.6058 11.5445 97.57 12.0069 97.2481 12.1136C98.3925 12.2915 99.5368 13.0207 99.8585 14.1233C100.055 14.7636 99.9658 15.4394 99.8765 16.0975C99.805 16.6844 99.7155 17.3247 99.34 17.787C98.7858 18.4984 97.7666 18.6585 96.8726 18.7652C96.7296 19.3521 96.0324 19.7256 95.4602 19.5299C94.6557 18.5518 94.4589 17.129 94.9596 15.9553C94.1729 15.5639 93.5292 14.9237 93.118 14.1589C93.1 14.1589 87.3429 14.1233 85.3225 12.9673Z" fill="#2F5373"/>
<path d="M87.5754 20.5971C87.2714 20.5971 86.9317 20.4904 86.6457 20.3126C86.592 20.2771 86.5742 20.1882 86.6099 20.1348C86.6457 20.0814 86.735 20.0637 86.7887 20.0992C87.1462 20.3305 87.5932 20.4193 87.8972 20.2949C88.0939 20.2059 88.2369 20.0458 88.2906 19.8147C88.3084 19.7435 88.3799 19.6902 88.4514 19.7079C88.5229 19.7258 88.5766 19.7969 88.5588 19.868C88.4872 20.1882 88.2906 20.4193 88.0044 20.5439C87.8614 20.5794 87.7184 20.5971 87.5754 20.5971Z" fill="#232323"/>
<path d="M87.9152 18.7119C87.8972 18.7119 87.8974 18.7119 87.8794 18.7119C87.5934 18.6585 86.6457 18.4273 86.5742 17.9827C86.5027 17.5915 87.5039 16.2576 87.8079 15.8486C87.8614 15.7951 87.9331 15.7774 88.0046 15.8307C88.0582 15.8841 88.0761 15.9552 88.0224 16.0264C87.4324 16.7912 86.8067 17.7516 86.8424 17.9471C86.8782 18.1251 87.4324 18.3385 87.9509 18.4451C88.0224 18.4628 88.0761 18.5341 88.0582 18.6053C88.0404 18.6585 87.9867 18.7119 87.9152 18.7119Z" fill="#232323"/>
<path d="M87.8795 47.8258L88.4517 48.9641L89.7389 49.1598L88.8092 50.0491L89.0237 51.3118L87.8795 50.7071L86.7531 51.3118L86.9677 50.0491L86.0378 49.1598L87.3252 48.9641L87.8795 47.8258Z" fill="#F3DF88"/>
<path d="M93.0467 47.8258L93.6189 48.9641L94.8884 49.1598L93.9765 50.0491L94.191 51.3118L93.0467 50.7071L91.9025 51.3118L92.117 50.0491L91.2051 49.1598L92.4745 48.9641L93.0467 47.8258Z" fill="#F3DF88"/>
<path d="M98.2137 47.8258L98.7679 48.9641L100.055 49.1598L99.1256 50.0491L99.3401 51.3118L98.2137 50.7071L97.0695 51.3118L97.284 50.0491L96.3542 49.1598L97.6415 48.9641L98.2137 47.8258Z" fill="#F3DF88"/>
<path d="M103.363 47.8258L103.935 48.9641L105.205 49.1598L104.293 50.0491L104.507 51.3118L103.363 50.7071L102.219 51.3118L102.433 50.0491L101.521 49.1598L102.791 48.9641L103.363 47.8258Z" fill="#F3DF88"/>
<path d="M108.53 47.8258L109.085 48.9641L110.372 49.1598L109.442 50.0491L109.657 51.3118L108.53 50.7071L107.386 51.3118L107.601 50.0491L106.671 49.1598L107.958 48.9641L108.53 47.8258Z" fill="#F3DF88"/>
<path d="M93.4757 69.8969H87.2178V74.0585H93.4757V69.8969Z" fill="#FFC7A8"/>
<path d="M93.4757 74.8589H87.2178V75.6771H93.4757V74.8589Z" fill="#F1F2F2"/>
<path d="M101.343 69.8969H95.085V74.0585H101.343V69.8969Z" fill="#F3E6DE"/>
<path d="M101.343 74.8589H95.085V75.6771H101.343V74.8589Z" fill="#F1F2F2"/>
<path d="M109.192 69.8969H102.934V74.0585H109.192V69.8969Z" fill="#FFC7A8"/>
<path d="M109.192 74.8589H102.934V75.6771H109.192V74.8589Z" fill="#F1F2F2"/>
<path d="M93.4757 61.6626H87.2178V65.8243H93.4757V61.6626Z" fill="#F3E6DE"/>
<path d="M93.4757 66.6424H87.2178V67.4605H93.4757V66.6424Z" fill="#F1F2F2"/>
<path d="M101.343 61.6626H95.085V65.8243H101.343V61.6626Z" fill="#FFC7A8"/>
<path d="M101.343 66.6424H95.085V67.4605H101.343V66.6424Z" fill="#F1F2F2"/>
<path d="M109.192 61.6626H102.934V65.8243H109.192V61.6626Z" fill="#F3E6DE"/>
<path d="M109.192 66.6424H102.934V67.4605H109.192V66.6424Z" fill="#F1F2F2"/>
<path d="M93.4757 53.4459H87.2178V57.6074H93.4757V53.4459Z" fill="#F3E6DE"/>
<path d="M93.4757 58.4255H87.2178V59.2437H93.4757V58.4255Z" fill="#F1F2F2"/>
<path d="M101.343 53.4459H95.085V57.6074H101.343V53.4459Z" fill="#F3E6DE"/>
<path d="M101.343 58.4255H95.085V59.2437H101.343V58.4255Z" fill="#F1F2F2"/>
<path d="M109.192 53.4459H102.934V57.6074H109.192V53.4459Z" fill="#FFC7A8"/>
<path d="M109.192 58.4255H102.934V59.2437H109.192V58.4255Z" fill="#F1F2F2"/>
<path d="M93.4757 59.8305H87.2178V60.2396H93.4757V59.8305Z" fill="#F1F2F2"/>
<path d="M101.343 59.8305H95.085V60.2396H101.343V59.8305Z" fill="#F1F2F2"/>
<path d="M109.192 59.8305H102.934V60.2396H109.192V59.8305Z" fill="#F1F2F2"/>
<path d="M93.4757 68.0474H87.2178V68.4564H93.4757V68.0474Z" fill="#F1F2F2"/>
<path d="M101.343 68.0474H95.085V68.4564H101.343V68.0474Z" fill="#F1F2F2"/>
<path d="M109.192 68.0474H102.934V68.4564H109.192V68.0474Z" fill="#F1F2F2"/>
<path d="M93.4757 76.3528H87.2178V76.7618H93.4757V76.3528Z" fill="#F1F2F2"/>
<path d="M101.343 76.3528H95.085V76.7618H101.343V76.3528Z" fill="#F1F2F2"/>
<path d="M109.192 76.3528H102.934V76.7618H109.192V76.3528Z" fill="#F1F2F2"/>
<path d="M41.3032 5.64001H40.2305V5.99571H41.3032V5.64001Z" fill="#FFC7A8"/>
<path d="M71.77 5.99571H69.5888V5.64001H71.77V5.99571ZM67.4254 5.99571H65.244V5.64001H67.4254V5.99571ZM63.0628 5.99571H60.8814V5.64001H63.0628V5.99571ZM58.718 5.99571H56.5368V5.64001H58.718V5.99571ZM54.3554 5.99571H52.1742V5.64001H54.3554V5.99571ZM50.0108 5.99571H47.8294V5.64001H50.0108V5.99571ZM45.6482 5.99571H43.4668V5.64001H45.6482V5.99571Z" fill="#FFC7A8"/>
<path d="M75.0241 5.64001H73.9514V5.99571H75.0241V5.64001Z" fill="#FFC7A8"/>
<path d="M38.2996 87.4863C38.3174 87.504 38.3531 87.504 38.3711 87.5218C38.4068 87.5395 38.4426 87.5574 38.4783 87.5574C38.5141 87.5574 38.5498 87.5574 38.5856 87.5574C38.6213 87.5574 38.6571 87.5395 38.6749 87.504C38.7108 87.4863 38.7286 87.4684 38.7466 87.4328C38.7644 87.4151 38.7644 87.3973 38.7823 87.3617C38.8001 87.3084 38.8001 87.2727 38.7823 87.2195C38.7644 87.2016 38.7644 87.1839 38.7466 87.1483C38.7286 87.1128 38.6928 87.0772 38.6571 87.0593C38.6391 87.0416 38.6034 87.0416 38.5856 87.0238C38.5498 87.0061 38.5141 86.9882 38.4783 86.9882C38.4426 86.9882 38.4068 86.9882 38.3711 86.9882C38.3353 86.9882 38.2996 87.0061 38.2816 87.0416C38.2459 87.0593 38.2279 87.0772 38.2101 87.1128C38.1922 87.1305 38.1922 87.1483 38.1744 87.1839C38.1564 87.2372 38.1564 87.2727 38.1744 87.3261C38.1922 87.344 38.1922 87.3617 38.2101 87.3973C38.2279 87.4328 38.2637 87.4684 38.2996 87.4863Z" fill="#2F5373"/>
<path d="M40.9814 86.2947C41.3211 86.2947 41.3211 85.761 40.9814 85.761C40.6416 85.761 40.6416 86.2947 40.9814 86.2947Z" fill="#2F5373"/>
<path d="M44.8971 87.504C45.2369 87.504 45.2369 86.9704 44.8971 86.9704C44.5574 86.9704 44.5574 87.504 44.8971 87.504Z" fill="#2F5373"/>
<path d="M53.4794 87.0061C53.8191 87.0061 53.8191 86.4725 53.4794 86.4725C53.1397 86.4725 53.1397 87.0061 53.4794 87.0061Z" fill="#2F5373"/>
<path d="M55.2672 87.8063C55.607 87.8063 55.607 87.2729 55.2672 87.2729C54.9275 87.2729 54.9275 87.8063 55.2672 87.8063Z" fill="#2F5373"/>
<path d="M51.3516 87.1305C51.6913 87.1305 51.6913 86.5969 51.3516 86.5969C51.0119 86.5969 50.9941 87.1305 51.3516 87.1305Z" fill="#2F5373"/>
<path d="M43.9316 85.4943C44.2713 85.4943 44.2713 84.9608 43.9316 84.9608C43.5918 84.9608 43.5918 85.4943 43.9316 85.4943Z" fill="#2F5373"/>
<path d="M53.3183 85.85C53.6578 85.85 53.6578 85.3164 53.3183 85.3164C52.9785 85.3164 52.9785 85.85 53.3183 85.85Z" fill="#2F5373"/>
<path d="M56.4295 85.9389C56.7693 85.9389 56.7693 85.4054 56.4295 85.4054C56.072 85.4054 56.072 85.9389 56.4295 85.9389Z" fill="#2F5373"/>
<path d="M46.3275 86.5082C46.6672 86.5082 46.6672 85.9746 46.3275 85.9746C45.9699 85.9746 45.9699 86.5082 46.3275 86.5082Z" fill="#2F5373"/>
<path d="M49.6708 86.0279C50.0106 86.0279 50.0106 85.4943 49.6708 85.4943C49.3132 85.4943 49.3132 86.0279 49.6708 86.0279Z" fill="#2F5373"/>
<path d="M48.8844 87.6641C49.2242 87.6641 49.2242 87.1305 48.8844 87.1305C48.5447 87.1305 48.5447 87.6641 48.8844 87.6641Z" fill="#2F5373"/>
<path d="M58.2174 87.3261C58.5571 87.3261 58.5571 86.7925 58.2174 86.7925C57.8598 86.7925 57.8598 87.3261 58.2174 87.3261Z" fill="#2F5373"/>
<path d="M46.5778 88.3755C46.9175 88.3755 46.9175 87.8419 46.5778 87.8419C46.2381 87.8419 46.2381 88.3755 46.5778 88.3755Z" fill="#2F5373"/>
<path d="M61.3463 85.3164C61.6861 85.3164 61.6861 84.7828 61.3463 84.7828C61.0066 84.7828 61.0066 85.3164 61.3463 85.3164Z" fill="#2F5373"/>
<path d="M65.4765 87.7708C65.8161 87.7708 65.8161 87.2372 65.4765 87.2372C65.1188 87.2372 65.1188 87.7708 65.4765 87.7708Z" fill="#2F5373"/>
<path d="M38.7821 85.4411C39.1218 85.4411 39.1218 84.9075 38.7821 84.9075C38.4245 84.9075 38.4245 85.4411 38.7821 85.4411Z" fill="#2F5373"/>
<path d="M61.3463 86.9882C61.6861 86.9882 61.6861 86.4548 61.3463 86.4548C61.0066 86.4548 61.0066 86.9882 61.3463 86.9882Z" fill="#2F5373"/>
<path d="M63.5812 87.2906C63.9209 87.2906 63.9209 86.7571 63.5812 86.7571C63.2415 86.7571 63.2415 87.2906 63.5812 87.2906Z" fill="#2F5373"/>
<path d="M59.6833 88.1087C60.023 88.1087 60.023 87.5751 59.6833 87.5751C59.3435 87.5751 59.3435 88.1087 59.6833 88.1087Z" fill="#2F5373"/>
<path d="M62.9015 85.1742C63.2413 85.1742 63.2413 84.6407 62.9015 84.6407C62.5618 84.6407 62.5618 85.1742 62.9015 85.1742Z" fill="#2F5373"/>
<path d="M64.8866 85.2453C65.2264 85.2453 65.2264 84.7117 64.8866 84.7117C64.5469 84.7117 64.5469 85.2453 64.8866 85.2453Z" fill="#2F5373"/>
<path d="M40.731 87.8063C41.0708 87.8063 41.0708 87.2729 40.731 87.2729C40.3735 87.2729 40.3735 87.8063 40.731 87.8063Z" fill="#2F5373"/>
<path d="M43.3059 87.3261C43.6456 87.3261 43.6456 86.7925 43.3059 86.7925C42.9482 86.7925 42.9482 87.3261 43.3059 87.3261Z" fill="#2F5373"/>
<path d="M59.9516 82.4176C60.2911 82.4176 60.2911 81.884 59.9516 81.884C59.6118 81.884 59.6118 82.4176 59.9516 82.4176Z" fill="#2F5373"/>
<path d="M61.8288 82.542C62.1685 82.542 62.1685 82.0084 61.8288 82.0084C61.489 82.0084 61.489 82.542 61.8288 82.542Z" fill="#2F5373"/>
<path d="M62.5622 79.0739C62.9019 79.0739 62.9019 78.5403 62.5622 78.5403C62.2224 78.5403 62.2224 79.0739 62.5622 79.0739Z" fill="#2F5373"/>
<path d="M64.1889 81.6172C64.5286 81.6172 64.5286 81.0838 64.1889 81.0838C63.8312 81.0838 63.8312 81.6172 64.1889 81.6172Z" fill="#2F5373"/>
<path d="M67.6039 76.5307C67.9437 76.5307 67.9437 75.9971 67.6039 75.9971C67.2642 75.9971 67.2642 76.5307 67.6039 76.5307Z" fill="#2F5373"/>
<path d="M61.8288 74.2721C62.1685 74.2721 62.1685 73.7386 61.8288 73.7386C61.489 73.7386 61.489 74.2721 61.8288 74.2721Z" fill="#2F5373"/>
<path d="M64.2426 77.2776C64.5823 77.2776 64.5823 76.744 64.2426 76.744C63.9029 76.744 63.9029 77.2776 64.2426 77.2776Z" fill="#2F5373"/>
<path d="M65.7266 72.7248C66.0663 72.7248 66.0663 72.1912 65.7266 72.1912C65.387 72.1912 65.387 72.7248 65.7266 72.7248Z" fill="#2F5373"/>
<path d="M58.9503 84.8895C59.29 84.8895 59.29 84.3559 58.9503 84.3559C58.5927 84.3559 58.5927 84.8895 58.9503 84.8895Z" fill="#2F5373"/>
<path d="M54.3732 82.613C54.7129 82.613 54.7129 82.0794 54.3732 82.0794C54.0335 82.0794 54.0335 82.613 54.3732 82.613Z" fill="#2F5373"/>
<path d="M58.4677 80.2834C58.8074 80.2834 58.8074 79.7498 58.4677 79.7498C58.128 79.7498 58.128 80.2834 58.4677 80.2834Z" fill="#2F5373"/>
<path d="M68.4801 72.7959C68.8199 72.7959 68.8199 72.2623 68.4801 72.2623C68.1404 72.2623 68.1404 72.7959 68.4801 72.7959Z" fill="#2F5373"/>
<path d="M71.7702 73.8629C72.1099 73.8629 72.1099 73.3294 71.7702 73.3294C71.4304 73.3294 71.4304 73.8629 71.7702 73.8629Z" fill="#2F5373"/>
<path d="M70.3576 68.7232C70.6971 68.7232 70.6971 68.1896 70.3576 68.1896C70.0179 68.1896 70.0179 68.7232 70.3576 68.7232Z" fill="#2F5373"/>
<path d="M73.4505 62.0359C73.7902 62.0359 73.7902 61.5023 73.4505 61.5023C73.1108 61.5023 73.093 62.0359 73.4505 62.0359Z" fill="#2F5373"/>
<path d="M68.7484 65.7887C69.0882 65.7887 69.0882 65.2551 68.7484 65.2551C68.4087 65.2551 68.4087 65.7887 68.7484 65.7887Z" fill="#2F5373"/>
<path d="M64.7252 70.5904C65.0649 70.5904 65.0649 70.0569 64.7252 70.0569C64.3677 70.0569 64.3677 70.5904 64.7252 70.5904Z" fill="#2F5373"/>
<path d="M73.1825 64.5793C73.522 64.5793 73.522 64.0458 73.1825 64.0458C72.8427 64.0458 72.8248 64.5793 73.1825 64.5793Z" fill="#2F5373"/>
<path d="M73.5757 67.3181C73.9154 67.3181 73.9154 66.7845 73.5757 66.7845C73.2362 66.7845 73.2362 67.3181 73.5757 67.3181Z" fill="#2F5373"/>
<path d="M74.3805 59.7063C74.7203 59.7063 74.7203 59.1727 74.3805 59.1727C74.0408 59.1727 74.0408 59.7063 74.3805 59.7063Z" fill="#2F5373"/>
<path d="M75.4533 54.5662C75.793 54.5662 75.793 54.0328 75.4533 54.0328C75.1136 54.0328 75.1136 54.5662 75.4533 54.5662Z" fill="#2F5373"/>
<path d="M74.255 48.2171C74.5948 48.2171 74.5948 47.6835 74.255 47.6835C73.9153 47.6835 73.9153 48.2171 74.255 48.2171Z" fill="#2F5373"/>
<path d="M73.1825 51.3472C73.522 51.3472 73.522 50.8137 73.1825 50.8137C72.8427 50.8137 72.8248 51.3472 73.1825 51.3472Z" fill="#2F5373"/>
<path d="M72.7714 55.7578C73.1111 55.7578 73.1111 55.2242 72.7714 55.2242C72.4317 55.2242 72.4317 55.7578 72.7714 55.7578Z" fill="#2F5373"/>
<path d="M70.8224 61.9825C71.1621 61.9825 71.1621 61.4491 70.8224 61.4491C70.4827 61.4491 70.4827 61.9825 70.8224 61.9825Z" fill="#2F5373"/>
<path d="M77.1339 57.3052C77.4737 57.3052 77.4737 56.7716 77.1339 56.7716C76.7942 56.7716 76.7942 57.3052 77.1339 57.3052Z" fill="#2F5373"/>
<path d="M9.83526 70.5905C10.3487 70.5905 10.765 70.1765 10.765 69.6657C10.765 69.1549 10.3487 68.7408 9.83526 68.7408C9.32177 68.7408 8.90552 69.1549 8.90552 69.6657C8.90552 70.1765 9.32177 70.5905 9.83526 70.5905Z" fill="#F3E6DE"/>
<path d="M9.83526 76.0504C10.3487 76.0504 10.765 75.6363 10.765 75.1256C10.765 74.6148 10.3487 74.2008 9.83526 74.2008C9.32177 74.2008 8.90552 74.6148 8.90552 75.1256C8.90552 75.6363 9.32177 76.0504 9.83526 76.0504Z" fill="#FFC7A8"/>
<path d="M9.83526 71.7466C10.1928 71.7466 10.4968 72.0311 10.4968 72.4046C10.4968 72.7602 10.2107 73.0626 9.83526 73.0626C9.45978 73.0626 9.17371 72.7781 9.17371 72.4046C9.19158 72.049 9.47767 71.7466 9.83526 71.7466ZM9.83526 71.4798C9.31675 71.4798 8.90552 71.8889 8.90552 72.4046C8.90552 72.9203 9.31675 73.3294 9.83526 73.3294C10.3538 73.3294 10.765 72.9203 10.765 72.4046C10.765 71.8889 10.3538 71.4798 9.83526 71.4798Z" fill="#2F5373"/>
<path d="M6.84951 12.9496H3.52393V16.2576H6.84951V12.9496Z" fill="#F3E6DE"/>
<path d="M13.5185 12.9496H10.1929V16.2576H13.5185V12.9496Z" fill="#F3E6DE"/>
<path d="M10.1928 16.2753H6.86719V19.5833H10.1928V16.2753Z" fill="#F3E6DE"/>
<path d="M10.1928 9.64157H6.86719V12.9496H10.1928V9.64157Z" fill="#F3E6DE"/>
<path d="M75.9894 14.4612H73.0393V17.3958H75.9894V14.4612Z" fill="#F3E6DE"/>
<path d="M73.0392 17.3958H70.0891V20.3303H73.0392V17.3958Z" fill="#F3E6DE"/>
<path d="M90.9727 13.8033C90.9727 13.8033 90.758 14.9415 91.4197 15.6351C92.0812 16.3288 95.1208 16.7555 95.1208 16.7555L97.0517 14.8526L93.7261 13.1808L90.9727 13.8033Z" fill="#2F5373"/>
<path d="M93.9049 19.6545C93.8334 19.6545 93.7796 19.6368 93.7439 19.601C93.3864 19.3877 93.2432 18.8719 93.2791 18.4628C93.3149 18.0894 93.4936 17.8048 93.7618 17.7159C93.8334 17.6982 93.9049 17.7337 93.9406 17.787C93.9584 17.8581 93.9227 17.9294 93.8691 17.965C93.6187 18.0538 93.5651 18.3562 93.5651 18.4984C93.5294 18.8719 93.6724 19.2633 93.9049 19.3877C93.9406 19.4055 94.0299 19.3699 94.1373 19.281C94.6379 18.8542 95.2636 17.4314 94.9954 16.8089C94.9418 16.6844 94.8524 16.5954 94.7273 16.5598C94.3339 16.4531 93.6366 16.8622 93.4221 17.0223C93.3684 17.0579 93.2791 17.0579 93.2432 16.9867C93.2074 16.9333 93.2074 16.8445 93.2791 16.8089C93.3149 16.7734 94.2088 16.1331 94.8166 16.2932C95.0133 16.3464 95.1743 16.4887 95.2636 16.7022C95.5856 17.4491 94.9239 18.9786 94.3339 19.4766C94.1372 19.6189 94.0121 19.6545 93.9049 19.6545Z" fill="#232323"/>
<path d="M93.9049 19.6545C93.8334 19.6545 93.7796 19.6368 93.7439 19.601C93.3864 19.3877 93.2432 18.8719 93.2791 18.4628C93.3149 18.0894 93.4936 17.8048 93.7618 17.7159C93.8334 17.6982 93.9049 17.7337 93.9406 17.787C93.9584 17.8581 93.9227 17.9294 93.8691 17.965C93.6187 18.0538 93.5651 18.3562 93.5651 18.4984C93.5294 18.8719 93.6724 19.2633 93.9049 19.3877C93.9406 19.4055 94.0299 19.3699 94.1373 19.281C94.6379 18.8542 95.2636 17.4314 94.9954 16.8089C94.9418 16.6844 94.8524 16.5954 94.7273 16.5598C94.3339 16.4531 93.6366 16.8622 93.4221 17.0223C93.3684 17.0579 93.2791 17.0579 93.2432 16.9867C93.2074 16.9333 93.2074 16.8445 93.2791 16.8089C93.3149 16.7734 94.2088 16.1331 94.8166 16.2932C95.0133 16.3464 95.1743 16.4887 95.2636 16.7022C95.5856 17.4491 94.9239 18.9786 94.3339 19.4766C94.1372 19.6189 94.0121 19.6545 93.9049 19.6545Z" fill="#232323"/>
<path d="M5.58005 59.1191C5.50853 59.1191 5.43701 59.0658 5.43701 58.9768V58.2654C5.43701 58.1943 5.49066 58.1232 5.58005 58.1232C5.66945 58.1232 5.72309 58.1766 5.72309 58.2654V58.9768C5.72309 59.0658 5.65157 59.1191 5.58005 59.1191ZM5.58005 57.6964C5.50853 57.6964 5.43701 57.643 5.43701 57.554V56.8427C5.43701 56.7716 5.49066 56.7003 5.58005 56.7003C5.66945 56.7003 5.72309 56.7537 5.72309 56.8427V57.554C5.72309 57.643 5.65157 57.6964 5.58005 57.6964ZM5.58005 56.2736C5.50853 56.2736 5.43701 56.2201 5.43701 56.1313V55.4199C5.43701 55.3488 5.49066 55.2776 5.58005 55.2776C5.66945 55.2776 5.72309 55.3309 5.72309 55.4199V56.1313C5.72309 56.2201 5.65157 56.2736 5.58005 56.2736ZM5.58005 54.8507C5.50853 54.8507 5.43701 54.7974 5.43701 54.7085V53.997C5.43701 53.9259 5.49066 53.8548 5.58005 53.8548C5.66945 53.8548 5.72309 53.9082 5.72309 53.997V54.7085C5.72309 54.7974 5.65157 54.8507 5.58005 54.8507ZM5.58005 53.428C5.50853 53.428 5.43701 53.3746 5.43701 53.2856V52.5743C5.43701 52.5032 5.49066 52.4319 5.58005 52.4319C5.66945 52.4319 5.72309 52.4854 5.72309 52.5743V53.2856C5.72309 53.3746 5.65157 53.428 5.58005 53.428ZM5.58005 52.0052C5.50853 52.0052 5.43701 51.9518 5.43701 51.8629V51.1515C5.43701 51.0804 5.49066 51.0092 5.58005 51.0092C5.66945 51.0092 5.72309 51.0625 5.72309 51.1515V51.8629C5.72309 51.9518 5.65157 52.0052 5.58005 52.0052Z" fill="#2F5373"/>
<path d="M5.58005 51.2939C5.50853 51.2939 5.43701 51.2405 5.43701 51.1515V33.4911C5.43701 33.42 5.49066 33.3488 5.58005 33.3488C5.66945 33.3488 5.72309 33.4023 5.72309 33.4911V51.1515C5.72309 51.2405 5.65157 51.2939 5.58005 51.2939Z" fill="#2F5373"/>
<path d="M5.57991 49.1241H3.64893V28.1024H5.57991C5.65143 28.1024 5.72295 28.1558 5.72295 28.2446C5.72295 28.3336 5.6693 28.3869 5.57991 28.3869H3.91712V48.8574H5.57991C5.65143 48.8574 5.72295 48.9107 5.72295 48.9997C5.72295 49.0885 5.65143 49.1241 5.57991 49.1241Z" fill="#2F5373"/>
<path d="M5.79472 28.6182C6.01196 28.6182 6.18808 28.443 6.18808 28.2268C6.18808 28.0108 6.01196 27.8356 5.79472 27.8356C5.57748 27.8356 5.40137 28.0108 5.40137 28.2268C5.40137 28.443 5.57748 28.6182 5.79472 28.6182Z" fill="#F3E6DE"/>
<path d="M5.57988 60.6131C5.79712 60.6131 5.97322 60.4379 5.97322 60.2219C5.97322 60.0058 5.79712 59.8305 5.57988 59.8305C5.36264 59.8305 5.18652 60.0058 5.18652 60.2219C5.18652 60.4379 5.36264 60.6131 5.57988 60.6131Z" fill="#F3E6DE"/>
<path d="M81.2282 77.9536C81.1567 77.9536 81.0852 77.9001 81.0852 77.8113V77.0999C81.0852 77.0288 81.1388 76.9576 81.2282 76.9576C81.3177 76.9576 81.3712 77.0109 81.3712 77.0999V77.8113C81.3712 77.9001 81.3177 77.9536 81.2282 77.9536ZM81.2282 76.5307C81.1567 76.5307 81.0852 76.4775 81.0852 76.3885V75.677C81.0852 75.6059 81.1388 75.5348 81.2282 75.5348C81.3177 75.5348 81.3712 75.5882 81.3712 75.677V76.3885C81.3712 76.4775 81.3177 76.5307 81.2282 76.5307ZM81.2282 75.108C81.1567 75.108 81.0852 75.0546 81.0852 74.9658V74.2544C81.0852 74.1832 81.1388 74.1121 81.2282 74.1121C81.3177 74.1121 81.3712 74.1654 81.3712 74.2544V74.9658C81.3712 75.0546 81.3177 75.108 81.2282 75.108ZM81.2282 73.6852C81.1567 73.6852 81.0852 73.6318 81.0852 73.5429V72.8315C81.0852 72.7604 81.1388 72.6893 81.2282 72.6893C81.3177 72.6893 81.3712 72.7425 81.3712 72.8315V73.5429C81.3712 73.6318 81.3177 73.6852 81.2282 73.6852ZM81.2282 72.2623C81.1567 72.2623 81.0852 72.2091 81.0852 72.1201V71.4087C81.0852 71.3375 81.1388 71.2664 81.2282 71.2664C81.3177 71.2664 81.3712 71.3198 81.3712 71.4087V72.1201C81.3712 72.2091 81.3177 72.2623 81.2282 72.2623ZM81.2282 70.8396C81.1567 70.8396 81.0852 70.7862 81.0852 70.6974V69.986C81.0852 69.9148 81.1388 69.8437 81.2282 69.8437C81.3177 69.8437 81.3712 69.897 81.3712 69.986V70.6974C81.3712 70.7862 81.3177 70.8396 81.2282 70.8396Z" fill="#2F5373"/>
<path d="M81.2282 70.1281C81.1567 70.1281 81.0852 70.0746 81.0852 69.9857V63.3342C81.0852 63.2631 81.1388 63.192 81.2282 63.192C81.3177 63.192 81.3712 63.2452 81.3712 63.3342V69.9857C81.3712 70.0746 81.3177 70.1281 81.2282 70.1281Z" fill="#2F5373"/>
<path d="M81.2284 79.4474C81.4456 79.4474 81.6217 79.2723 81.6217 79.0562C81.6217 78.84 81.4456 78.6649 81.2284 78.6649C81.0111 78.6649 80.835 78.84 80.835 79.0562C80.835 79.2723 81.0111 79.4474 81.2284 79.4474Z" fill="#FFC7A8"/>
<path d="M82.9626 57.3408C83.18 57.3408 83.356 57.1656 83.356 56.9494C83.356 56.7334 83.18 56.5582 82.9626 56.5582C82.7454 56.5582 82.5693 56.7334 82.5693 56.9494C82.5693 57.1656 82.7454 57.3408 82.9626 57.3408Z" fill="#2F5373"/>
<path d="M5.57988 33.8471C5.79712 33.8471 5.97322 33.6719 5.97322 33.4557C5.97322 33.2397 5.79712 33.0645 5.57988 33.0645C5.36264 33.0645 5.18652 33.2397 5.18652 33.4557C5.18652 33.6719 5.36264 33.8471 5.57988 33.8471Z" fill="#F3E6DE"/>
<path d="M82.9626 65.2017C82.8911 65.2017 82.8196 65.1484 82.8196 65.0595V58.4079C82.8196 58.3367 82.8731 58.2656 82.9626 58.2656C83.0521 58.2656 83.1056 58.319 83.1056 58.4079V65.0595C83.1056 65.1306 83.0341 65.2017 82.9626 65.2017Z" fill="#2F5373"/>
<path d="M22.6015 76.8152C22.53 76.8152 22.4585 76.762 22.4585 76.673V70.0214C22.4585 69.9502 22.5122 69.8791 22.6015 69.8791C22.691 69.8791 22.7447 69.9325 22.7447 70.0214V76.673C22.7447 76.7441 22.6732 76.8152 22.6015 76.8152Z" fill="#2F5373"/>
<path d="M22.6015 68.2785C22.53 68.2785 22.4585 68.2251 22.4585 68.1361V67.4248C22.4585 67.3535 22.5122 67.2824 22.6015 67.2824C22.691 67.2824 22.7447 67.3358 22.7447 67.4248V68.1361C22.7447 68.2072 22.6732 68.2785 22.6015 68.2785ZM22.6015 66.8556C22.53 66.8556 22.4585 66.8022 22.4585 66.7134V66.002C22.4585 65.9308 22.5122 65.8597 22.6015 65.8597C22.691 65.8597 22.7447 65.913 22.7447 66.002V66.7134C22.7447 66.7845 22.6732 66.8556 22.6015 66.8556ZM22.6015 65.4328C22.53 65.4328 22.4585 65.3795 22.4585 65.2905V64.5791C22.4585 64.508 22.5122 64.4369 22.6015 64.4369C22.691 64.4369 22.7447 64.4903 22.7447 64.5791V65.2905C22.7447 65.3617 22.6732 65.4328 22.6015 65.4328ZM22.6015 64.0101C22.53 64.0101 22.4585 63.9567 22.4585 63.8677V63.1564C22.4585 63.0851 22.5122 63.014 22.6015 63.014C22.691 63.014 22.7447 63.0674 22.7447 63.1564V63.8677C22.7447 63.9388 22.6732 64.0101 22.6015 64.0101ZM22.6015 62.5872C22.53 62.5872 22.4585 62.5338 22.4585 62.445V61.7336C22.4585 61.6624 22.5122 61.5913 22.6015 61.5913C22.691 61.5913 22.7447 61.6446 22.7447 61.7336V62.445C22.7447 62.5161 22.6732 62.5872 22.6015 62.5872Z" fill="#2F5373"/>
<path d="M5.07934 84.6229H1.57495V88.1087H5.07934V84.6229Z" fill="#F3E6DE"/>
<path d="M10.4433 84.6229H6.93896V88.1087H10.4433V84.6229Z" fill="#FFC7A8"/>
<path d="M117.856 74.9086L116.883 75.877L117.856 76.8453L118.83 75.877L117.856 74.9086Z" fill="#FFC7A8"/>
<path d="M119.512 73.2445L118.538 74.2129L119.512 75.1812L120.485 74.2129L119.512 73.2445Z" fill="#FFC7A8"/>
<path d="M119.637 76.6861L118.664 77.6545L119.637 78.6228L120.611 77.6545L119.637 76.6861Z" fill="#FFC7A8"/>
<path d="M121.306 75.0344L120.332 76.0028L121.306 76.9711L122.279 76.0028L121.306 75.0344Z" fill="#FFC7A8"/>
</svg>
