<svg width="340" height="255" viewBox="0 0 340 255" fill="none" xmlns="http://www.w3.org/2000/svg">
<g clip-path="url(#clip0_4_441)">
<path d="M0 78.2629H340.212" stroke="white" stroke-width="0.25" stroke-miterlimit="10"/>
<path d="M340.212 161.222H0" stroke="white" stroke-width="0.25" stroke-miterlimit="10"/>
<path d="M0 93.7775H340.212" stroke="white" stroke-width="0.25" stroke-miterlimit="10"/>
<path d="M340.212 176.737H0" stroke="white" stroke-width="0.25" stroke-miterlimit="10"/>
<path d="M34.9772 57.0775C44.7414 57.0775 52.6571 49.1619 52.6571 39.3973C52.6571 29.6329 44.7414 21.7173 34.9772 21.7173C25.2128 21.7173 17.2971 29.6329 17.2971 39.3973C17.2971 49.1619 25.2128 57.0775 34.9772 57.0775Z" stroke="#FFE458" stroke-width="4.75"/>
<path d="M165.03 215.897C166.603 216.534 167.325 218.319 166.688 219.892L159.548 237.104C158.91 238.677 157.125 239.399 155.553 238.762C153.98 238.124 153.258 236.339 153.895 234.767L161.035 217.554C161.673 215.982 163.458 215.259 165.03 215.897Z" fill="#4382FF"/>
<path d="M171.703 232.047C171.108 233.492 169.45 234.172 168.005 233.577L150.368 226.267C148.923 225.672 148.243 224.014 148.838 222.569C149.433 221.124 151.09 220.444 152.535 221.039L170.173 228.349C171.618 228.987 172.298 230.644 171.703 232.047Z" fill="#4382FF"/>
<path d="M34.6578 35.275H302.28C306.318 35.275 309.59 38.5475 309.59 42.585V197.54C309.59 201.577 306.318 204.85 302.28 204.85H34.6578C30.6203 204.85 27.3478 201.577 27.3478 197.54V42.585C27.3478 38.5475 30.6203 35.275 34.6578 35.275Z" fill="#4382FF"/>
<path d="M72.2933 45.645V200.685" stroke="black" stroke-width="0.25"/>
<path d="M82.3229 53.1675H292.528C295.97 53.1675 298.733 55.9725 298.733 59.3725C298.733 62.815 295.928 65.5775 292.528 65.5775H82.3229C78.8804 65.5775 76.1179 62.7725 76.1179 59.3725C76.0754 55.93 78.8804 53.1675 82.3229 53.1675Z" fill="#8FE4FF"/>
<path d="M86.5729 138.751C86.5729 132.703 91.5029 127.84 97.5379 127.84H277.27C283.348 127.84 288.235 132.745 288.235 138.751V204.85H86.5729V138.751Z" fill="#8FE4FF"/>
<path d="M52.9133 43.69H39.9932V44.6144H52.9133V43.69Z" fill="#8FE4FF"/>
<path d="M52.9133 46.3365H39.9932V47.2609H52.9133V46.3365Z" fill="#8FE4FF"/>
<path d="M52.9133 48.9825H39.9932V49.9069H52.9133V48.9825Z" fill="#8FE4FF"/>
<path d="M67.1504 92.3096H40.0779V93.2021H67.1504V92.3096Z" fill="#B3CAF8"/>
<path d="M67.1504 94.5621H40.0779V95.4546H67.1504V94.5621Z" fill="#B3CAF8"/>
<path d="M67.1504 96.8146H40.0779V97.7071H67.1504V96.8146Z" fill="#B3CAF8"/>
<path d="M67.1504 103.105H40.0779V103.998H67.1504V103.105Z" fill="#B3CAF8"/>
<path d="M67.1504 105.357H40.0779V106.25H67.1504V105.357Z" fill="#B3CAF8"/>
<path d="M67.1504 107.61H40.0779V108.502H67.1504V107.61Z" fill="#B3CAF8"/>
<path d="M67.1504 113.9H40.0779V114.792H67.1504V113.9Z" fill="#B3CAF8"/>
<path d="M67.1504 116.152H40.0779V117.045H67.1504V116.152Z" fill="#B3CAF8"/>
<path d="M67.1504 118.405H40.0779V119.297H67.1504V118.405Z" fill="#B3CAF8"/>
<path d="M67.1504 124.695H40.0779V125.587H67.1504V124.695Z" fill="#B3CAF8"/>
<path d="M67.1504 126.947H40.0779V127.84H67.1504V126.947Z" fill="#B3CAF8"/>
<path d="M67.1504 129.2H40.0779V130.092H67.1504V129.2Z" fill="#B3CAF8"/>
<path d="M67.1504 135.49H40.0779V136.382H67.1504V135.49Z" fill="#B3CAF8"/>
<path d="M67.1504 137.743H40.0779V138.635H67.1504V137.743Z" fill="#B3CAF8"/>
<path d="M67.1504 139.995H40.0779V140.887H67.1504V139.995Z" fill="#B3CAF8"/>
<path d="M67.1504 146.285H40.0779V147.177H67.1504V146.285Z" fill="#B3CAF8"/>
<path d="M67.1504 148.537H40.0779V149.43H67.1504V148.537Z" fill="#B3CAF8"/>
<path d="M67.1504 150.79H40.0779V151.682H67.1504V150.79Z" fill="#B3CAF8"/>
<path d="M67.1504 157.08H40.0779V157.973H67.1504V157.08Z" fill="#B3CAF8"/>
<path d="M67.1504 159.332H40.0779V160.225H67.1504V159.332Z" fill="#B3CAF8"/>
<path d="M67.1504 161.585H40.0779V162.477H67.1504V161.585Z" fill="#B3CAF8"/>
<path d="M67.9159 166.685H40.2057V194.267H67.9159V166.685Z" fill="#B3CAF8"/>
<path d="M67.9159 59.3721H40.2057V86.9546H67.9159V59.3721Z" fill="#B3CAF8"/>
<path d="M300.9 43.8175L297.075 47.6425" stroke="#78D2EE" stroke-width="0.2691" stroke-linecap="round"/>
<path d="M297.075 43.8175L300.9 47.6425" stroke="#78D2EE" stroke-width="0.2691" stroke-linecap="round"/>
<path d="M289.765 43.69H285.345V47.685H289.765V43.69Z" stroke="#78D2EE" stroke-width="0.2691" stroke-linecap="round"/>
<path d="M273.445 45.645H278.035" stroke="#78D2EE" stroke-width="0.2691" stroke-linecap="round"/>
<path d="M77.7325 65.62H297.075" stroke="#78D2EE" stroke-width="0.25"/>
<path d="M127.797 84.745H155.55C156.485 84.745 157.25 85.51 157.25 86.445V114.24C157.25 115.175 156.485 115.94 155.55 115.94H127.755C126.82 115.94 126.055 115.175 126.055 114.24V86.445C126.097 85.51 126.862 84.745 127.797 84.745Z" fill="#192439"/>
<path d="M144.117 117.64H126.097V120.105H144.117V117.64Z" fill="#192439"/>
<path d="M141.695 105.698C145.521 105.698 148.623 102.596 148.623 98.77C148.623 94.9437 145.521 91.8425 141.695 91.8425C137.869 91.8425 134.768 94.9437 134.768 98.77C134.768 102.596 137.869 105.698 141.695 105.698Z" fill="#B3CAF8"/>
<path fill-rule="evenodd" clip-rule="evenodd" d="M154.105 115.94H129.2C128.945 115.217 128.818 114.453 128.818 113.688C128.818 108.545 134.555 104.38 141.652 104.38C148.75 104.38 154.488 108.545 154.488 113.688C154.488 114.453 154.36 115.217 154.105 115.94Z" fill="#B3CAF8"/>
<path d="M84.0221 84.745H111.817C112.752 84.745 113.517 85.51 113.517 86.445V114.24C113.517 115.175 112.752 115.94 111.817 115.94H84.0221C83.0871 115.94 82.3221 115.175 82.3221 114.24V86.445C82.3221 85.51 83.0871 84.745 84.0221 84.745Z" fill="#192439"/>
<path d="M100.342 117.64H82.3221V120.105H100.342V117.64Z" fill="#192439"/>
<path d="M104.731 99.8814C105.344 96.1048 102.779 92.5463 99.0025 91.9334C95.2259 91.3202 91.6674 93.885 91.0546 97.6616C90.4417 101.438 93.0062 104.997 96.7827 105.61C100.56 106.222 104.118 103.658 104.731 99.8814Z" fill="#B3CAF8"/>
<path fill-rule="evenodd" clip-rule="evenodd" d="M110.33 115.94H85.425C85.17 115.217 85.0425 114.453 85.0425 113.688C85.0425 108.545 90.78 104.38 97.8775 104.38C104.975 104.38 110.712 108.545 110.712 113.688C110.712 114.453 110.585 115.217 110.33 115.94Z" fill="#B3CAF8"/>
<path d="M171.53 84.745H199.325C200.26 84.745 201.025 85.51 201.025 86.445V114.24C201.025 115.175 200.26 115.94 199.325 115.94H171.53C170.595 115.94 169.83 115.175 169.83 114.24V86.445C169.873 85.51 170.595 84.745 171.53 84.745Z" fill="#192439"/>
<path d="M187.892 117.64H169.872V120.105H187.892V117.64Z" fill="#192439"/>
<path d="M185.427 105.698C189.253 105.698 192.355 102.596 192.355 98.77C192.355 94.9437 189.253 91.8425 185.427 91.8425C181.602 91.8425 178.5 94.9437 178.5 98.77C178.5 102.596 181.602 105.698 185.427 105.698Z" fill="#B3CAF8"/>
<path fill-rule="evenodd" clip-rule="evenodd" d="M197.88 115.94H172.975C172.72 115.217 172.592 114.453 172.592 113.688C172.592 108.545 178.33 104.38 185.427 104.38C192.525 104.38 198.262 108.545 198.262 113.688C198.262 114.453 198.135 115.217 197.88 115.94Z" fill="#B3CAF8"/>
<path d="M215.518 84.745H243.312C244.247 84.745 245.012 85.51 245.012 86.445V114.24C245.012 115.175 244.247 115.94 243.312 115.94H215.518C214.583 115.94 213.818 115.175 213.818 114.24V86.445C213.818 85.51 214.583 84.745 215.518 84.745Z" fill="#192439"/>
<path d="M231.837 117.64H213.818V120.105H231.837V117.64Z" fill="#192439"/>
<path d="M229.415 105.698C233.241 105.698 236.342 102.596 236.342 98.77C236.342 94.9437 233.241 91.8425 229.415 91.8425C225.589 91.8425 222.487 94.9437 222.487 98.77C222.487 102.596 225.589 105.698 229.415 105.698Z" fill="#B3CAF8"/>
<path fill-rule="evenodd" clip-rule="evenodd" d="M241.867 115.94H216.963C216.708 115.217 216.58 114.453 216.58 113.688C216.58 108.545 222.318 104.38 229.415 104.38C236.512 104.38 242.25 108.545 242.25 113.688C242.25 114.453 242.08 115.217 241.867 115.94Z" fill="#B3CAF8"/>
<path d="M259.08 84.745H286.875C287.81 84.745 288.575 85.51 288.575 86.445V114.24C288.575 115.175 287.81 115.94 286.875 115.94H259.08C258.145 115.94 257.38 115.175 257.38 114.24V86.445C257.38 85.51 258.145 84.745 259.08 84.745Z" fill="#192439"/>
<path d="M275.4 117.64H257.38V120.105H275.4V117.64Z" fill="#192439"/>
<path d="M272.978 105.698C276.803 105.698 279.905 102.596 279.905 98.77C279.905 94.9437 276.803 91.8425 272.978 91.8425C269.152 91.8425 266.05 94.9437 266.05 98.77C266.05 102.596 269.152 105.698 272.978 105.698Z" fill="#B3CAF8"/>
<path fill-rule="evenodd" clip-rule="evenodd" d="M285.43 115.94H260.525C260.27 115.217 260.142 114.453 260.142 113.688C260.142 108.545 265.88 104.38 272.977 104.38C280.075 104.38 285.812 108.545 285.812 113.688C285.812 114.453 285.685 115.217 285.43 115.94Z" fill="#B3CAF8"/>
<path d="M242.335 111.86H247.647C248.37 111.86 248.922 112.413 248.922 113.135V118.788C248.922 119.51 248.37 120.063 247.647 120.063H242.335C241.612 120.063 241.06 119.51 241.06 118.788V113.135C241.06 112.455 241.655 111.86 242.335 111.86Z" fill="white" fill-opacity="0.6"/>
<path d="M244.588 114.708C244.588 114.495 244.758 114.283 245.013 114.283C245.225 114.283 245.438 114.453 245.438 114.708V117.257C245.438 117.47 245.268 117.682 245.013 117.682C244.8 117.682 244.588 117.512 244.588 117.257V114.708Z" fill="#1B2226"/>
<path d="M246.287 115.6C246.499 115.6 246.669 115.77 246.669 115.982C246.669 116.195 246.499 116.365 246.287 116.365H243.652C243.439 116.365 243.269 116.195 243.269 115.982C243.269 115.77 243.439 115.6 243.652 115.6H246.287Z" fill="#1B2226"/>
<path d="M285.94 111.86H291.252C291.975 111.86 292.527 112.413 292.527 113.135V118.788C292.527 119.51 291.975 120.063 291.252 120.063H285.94C285.217 120.063 284.665 119.51 284.665 118.788V113.135C284.665 112.455 285.217 111.86 285.94 111.86Z" fill="white" fill-opacity="0.6"/>
<path d="M288.15 114.708C288.15 114.495 288.32 114.283 288.575 114.283C288.788 114.283 289 114.453 289 114.708V117.257C289 117.47 288.83 117.682 288.575 117.682C288.363 117.682 288.15 117.512 288.15 117.257V114.708Z" fill="#1B2226"/>
<path d="M289.892 115.6C290.105 115.6 290.275 115.77 290.275 115.982C290.275 116.195 290.105 116.365 289.892 116.365H287.258C287.045 116.365 286.875 116.195 286.875 115.982C286.875 115.77 287.045 115.6 287.258 115.6H289.892Z" fill="#1B2226"/>
<path d="M154.615 111.86H159.927C160.65 111.86 161.202 112.413 161.202 113.135V118.788C161.202 119.51 160.65 120.063 159.927 120.063H154.615C153.892 120.063 153.34 119.51 153.34 118.788V113.135C153.34 112.455 153.892 111.86 154.615 111.86Z" fill="white" fill-opacity="0.6"/>
<path d="M156.825 114.708C156.825 114.495 156.995 114.283 157.25 114.283C157.463 114.283 157.675 114.453 157.675 114.708V117.257C157.675 117.47 157.505 117.682 157.25 117.682C157.038 117.682 156.825 117.512 156.825 117.257V114.708Z" fill="#1B2226"/>
<path d="M158.567 115.6C158.78 115.6 158.95 115.77 158.95 115.982C158.95 116.195 158.78 116.365 158.567 116.365H155.932C155.72 116.365 155.55 116.195 155.55 115.982C155.55 115.77 155.72 115.6 155.932 115.6H158.567Z" fill="#1B2226"/>
<path d="M110.84 111.86H116.152C116.875 111.86 117.427 112.413 117.427 113.135V118.788C117.427 119.51 116.875 120.063 116.152 120.063H110.84C110.117 120.063 109.565 119.51 109.565 118.788V113.135C109.565 112.455 110.16 111.86 110.84 111.86Z" fill="white" fill-opacity="0.6"/>
<path d="M113.092 114.708C113.092 114.495 113.262 114.283 113.517 114.283C113.73 114.283 113.942 114.453 113.942 114.708V117.257C113.942 117.47 113.772 117.682 113.517 117.682C113.305 117.682 113.092 117.512 113.092 117.257V114.708Z" fill="#1B2226"/>
<path d="M114.793 115.6C115.005 115.6 115.175 115.77 115.175 115.982C115.175 116.195 115.005 116.365 114.793 116.365H112.2C111.988 116.365 111.818 116.195 111.818 115.982C111.818 115.77 111.988 115.6 112.2 115.6H114.793Z" fill="#1B2226"/>
<path d="M198.39 111.86H203.702C204.425 111.86 204.977 112.413 204.977 113.135V118.788C204.977 119.51 204.425 120.063 203.702 120.063H198.39C197.667 120.063 197.115 119.51 197.115 118.788V113.135C197.115 112.455 197.667 111.86 198.39 111.86Z" fill="white" fill-opacity="0.6"/>
<path d="M200.6 114.708C200.6 114.495 200.77 114.283 201.025 114.283C201.238 114.283 201.45 114.453 201.45 114.708V117.257C201.45 117.47 201.28 117.682 201.025 117.682C200.813 117.682 200.6 117.512 200.6 117.257V114.708Z" fill="#1B2226"/>
<path d="M202.343 115.6C202.555 115.6 202.725 115.77 202.725 115.982C202.725 116.195 202.555 116.365 202.343 116.365H199.708C199.495 116.365 199.325 116.195 199.325 115.982C199.325 115.77 199.495 115.6 199.708 115.6H202.343Z" fill="#1B2226"/>
<path d="M148.92 142.205H103.02V173.23H148.92V142.205Z" fill="#205284"/>
<path d="M209.185 142.205H163.285V173.23H209.185V142.205Z" fill="#205284"/>
<path d="M269.408 142.205H223.508V173.23H269.408V142.205Z" fill="#205284"/>
<path d="M148.92 177.607H103.02V181.093H148.92V177.607Z" fill="#4382FF"/>
<path d="M209.185 177.607H163.285V181.093H209.185V177.607Z" fill="#4382FF"/>
<path d="M269.408 177.607H223.508V181.093H269.408V177.607Z" fill="#4382FF"/>
<path d="M148.92 182.835H103.02V186.32H148.92V182.835Z" fill="#4382FF"/>
<path d="M209.185 182.835H163.285V186.32H209.185V182.835Z" fill="#4382FF"/>
<path d="M269.408 182.835H223.508V186.32H269.408V182.835Z" fill="#4382FF"/>
<path d="M148.92 195.798H103.02V204.552H148.92V195.798Z" fill="#4382FF"/>
<path d="M209.185 195.798H163.285V204.552H209.185V195.798Z" fill="#4382FF"/>
<path d="M269.408 195.798H223.508V204.552H269.408V195.798Z" fill="#4382FF"/>
<path d="M98.1325 190.91H276.675" stroke="#121A2A" stroke-width="0.25"/>
<path d="M125.97 163.965C129.421 163.965 132.218 161.168 132.218 157.718C132.218 154.267 129.421 151.47 125.97 151.47C122.52 151.47 119.723 154.267 119.723 157.718C119.723 161.168 122.52 163.965 125.97 163.965Z" stroke="#283959" stroke-opacity="0.5" stroke-width="1.6813"/>
<path d="M128.988 157.463C129.2 157.59 129.2 157.888 128.988 157.973L124.695 160.438C124.483 160.565 124.228 160.395 124.228 160.183V155.252C124.228 155.04 124.483 154.87 124.695 154.998L128.988 157.463Z" fill="#B3CAF8"/>
<path d="M246.458 164.007C249.908 164.007 252.705 161.211 252.705 157.76C252.705 154.309 249.908 151.513 246.458 151.513C243.008 151.513 240.21 154.309 240.21 157.76C240.21 161.211 243.008 164.007 246.458 164.007Z" stroke="#283959" stroke-opacity="0.5" stroke-width="1.6813"/>
<path d="M249.475 157.463C249.688 157.59 249.688 157.888 249.475 157.973L245.183 160.438C244.97 160.565 244.715 160.395 244.715 160.183V155.252C244.715 155.04 244.97 154.87 245.183 154.998L249.475 157.463Z" fill="#B3CAF8"/>
<path d="M186.235 163.965C189.686 163.965 192.482 161.168 192.482 157.718C192.482 154.267 189.686 151.47 186.235 151.47C182.784 151.47 179.987 154.267 179.987 157.718C179.987 161.168 182.784 163.965 186.235 163.965Z" stroke="#283959" stroke-opacity="0.5" stroke-width="1.6813"/>
<path d="M189.253 157.463C189.466 157.59 189.466 157.888 189.253 157.973L184.961 160.438C184.748 160.565 184.493 160.395 184.493 160.183V155.252C184.493 155.04 184.748 154.87 184.961 154.998L189.253 157.463Z" fill="#B3CAF8"/>
<path d="M75.9479 204.595H298.818" stroke="black" stroke-opacity="0.53" stroke-miterlimit="10" stroke-linecap="round"/>
<path d="M247.964 71.7307H211.723V75.2675H247.964V71.7307Z" fill="#B3CAF8"/>
<path d="M290.382 71.7307H254.141V75.2675H290.382V71.7307Z" fill="#B3CAF8"/>
<path d="M120.709 71.7307H84.4688V75.2675H120.709V71.7307Z" fill="#B3CAF8"/>
<path d="M163.127 71.7307H126.887V75.2675H163.127V71.7307Z" fill="#B3CAF8"/>
<path d="M205.545 71.7307H169.304V75.2675H205.545V71.7307Z" fill="#B3CAF8"/>
<path opacity="0.89" d="M223.392 17.1435L241.156 26.0491C243.051 26.9965 243.809 29.2702 242.862 31.1177L233.956 48.8814C233.008 50.7764 230.735 51.5342 228.887 50.5869L211.123 41.6812C209.229 40.7338 208.471 38.4601 209.418 36.6126L218.324 18.8488C219.271 16.954 221.545 16.1961 223.392 17.1435Z" fill="#151515" fill-opacity="0.2"/>
<path d="M221.638 12.1551L237.575 20.1451C239.275 20.9951 239.955 23.0351 239.105 24.6926L231.115 40.6301C230.265 42.3301 228.225 43.01 226.567 42.1601L210.63 34.1701C208.93 33.3201 208.25 31.2801 209.1 29.6226L217.09 13.6851C217.94 11.9851 219.98 11.3051 221.638 12.1551Z" fill="#B3CAF8"/>
<path d="M285.538 95.0725C282.52 111.393 278.95 119.977 271.895 124.227C271.768 124.312 271.683 124.355 271.555 124.44C271.088 124.695 270.62 124.95 270.11 125.205C265.945 127.16 260.675 127.925 253.833 128.052C253.068 128.052 252.345 128.052 251.538 128.052C247.203 128.052 242.783 127.372 238.448 126.182C229.523 123.675 221.108 118.873 214.988 113.008C214.818 112.88 214.69 112.71 214.52 112.583C214.393 112.455 214.308 112.37 214.18 112.243C214.053 112.158 213.968 112.03 213.883 111.945C213.84 111.903 213.84 111.903 213.798 111.86C213.628 111.69 213.458 111.52 213.288 111.308C212.99 111.01 212.693 110.67 212.438 110.373C211.545 109.353 210.738 108.333 210.015 107.313C209.038 105.953 208.188 104.55 207.508 103.105C206.785 101.618 206.19 100.13 205.808 98.6C205.383 97.0275 205.17 95.4975 205.17 93.925C205.17 92.8625 205.255 91.8425 205.383 90.78C206.02 86.2325 207.933 81.8125 210.908 77.9025C214.988 72.505 220.98 68.085 228.12 65.535C233.39 63.665 239.255 64.005 245.503 64.005C267.815 63.9625 285.538 78.54 285.538 95.0725Z" fill="#543E36"/>
<path d="M202.238 143.522C200.708 131.41 204.49 114.155 203.258 99.28C203.13 97.665 204.278 96.22 204.49 94.7325C204.873 92.3525 205.425 91.035 205.808 89.1225L255.703 102.127C255.32 114.24 251.599 143.581 248.284 146.173C245.734 148.171 219.365 156.315 208.23 156.315C205.765 156.315 200.368 153.807 200.665 150.067C200.75 149.175 201.048 148.367 201.473 147.645C202.153 146.37 202.45 144.925 202.238 143.522Z" fill="#543E36"/>
<path d="M275.338 168.98C268.24 162.35 269.897 131.112 272.83 116.365H243.292L226.505 150.577C226.505 150.577 226.335 154.275 226.505 158.227C226.675 162.987 229.31 167.11 228.842 170.978C228.205 176.502 228.375 183.218 227.355 184.493L275.338 168.98Z" fill="#543E36"/>
<path d="M194.17 119.255C194.17 119.255 198.505 115.132 200.545 111.945C203.35 107.525 204.559 105.25 204.559 105.25L208.121 131.314L197.485 127.245C193.787 126.565 192.045 122.315 194.17 119.255Z" fill="#543E36"/>
<path d="M206.572 138.38C205.637 138.21 204.32 137.998 202.96 137.7C201.855 137.445 200.75 137.19 199.815 136.935C199.73 136.893 199.687 136.893 199.602 136.85C199.517 136.808 199.432 136.807 199.305 136.765C198.625 136.552 198.115 136.298 197.775 136.085C195.862 135.023 197.307 131.367 198.03 131.24C198.88 131.282 199.39 129.412 199.177 128.307C199.05 127.712 199.56 127.33 199.56 127.33L203.342 129.157L203.682 129.327L206.105 130.518L206.445 136L206.572 138.38Z" fill="#543E36"/>
<path d="M207.465 135.745L200.793 149.473C200.92 148.07 201.133 146.54 200.963 146.03C200.665 145.265 200.453 144.202 199.093 143.352C197.18 142.162 195.48 140.505 197.818 137.318C197.945 137.148 198.115 137.063 198.37 136.935C198.413 136.935 198.498 136.892 198.54 136.85C198.54 136.85 198.583 136.85 198.625 136.807C199.433 136.51 200.623 136.297 201.94 136.17C202.153 136.17 202.323 136.127 202.535 136.127C203.513 136.042 204.49 136 205.383 135.915C206.148 135.915 206.87 135.83 207.465 135.745Z" fill="#543E36"/>
<path fill-rule="evenodd" clip-rule="evenodd" d="M285.538 95.0725C282.52 111.392 278.95 119.977 271.895 124.227C271.768 124.312 271.683 124.355 271.555 124.44C271.555 124.567 271.513 124.695 271.513 124.823C271.47 125.12 271.428 125.375 271.428 125.673L270.11 125.205L256.17 125.673C256.51 124.143 259.443 109.522 248.86 107.61C238.448 105.74 237.343 118.83 237.343 118.83L229.523 115.6C229.523 115.6 230.713 103.7 222.85 101.193L225.528 94.2225L228.163 87.3375L210.95 77.86C215.03 72.4625 221.023 68.0425 228.163 65.4925C233.433 63.6225 239.298 63.9625 245.545 63.9625C267.815 63.9625 285.538 78.54 285.538 95.0725Z" fill="#192439"/>
<path d="M271.461 155.414L228.068 165.495L227.758 164.472C227.758 164.472 265.26 154.261 270.538 152.039C270.635 154.892 271.461 155.414 271.461 155.414Z" fill="#090E17" fill-opacity="0.2"/>
<path d="M301.815 201.45C299.775 195.33 283.668 177.182 275.465 168.385C258.168 173.485 224.465 180.03 224.465 180.03C206.913 202.3 203.598 215.645 195.693 255.085H304.068C304.11 255.085 303.855 207.57 301.815 201.45Z" fill="#4382FF"/>
<path d="M301.815 201.45C299.775 195.33 283.668 177.182 275.465 168.385C258.168 173.485 224.465 180.03 224.465 180.03C206.913 202.3 203.598 215.645 195.693 255.085H304.068C304.11 255.085 303.855 207.57 301.815 201.45Z" fill="#26293B"/>
<path d="M222.935 168.768C223.19 167.195 224.337 165.877 225.91 165.495L272.575 153.212C273.807 152.83 274.997 153.85 274.87 155.125C274.7 156.995 274.53 159.46 274.827 161.415C275.337 164.985 278.397 168.257 277.93 170.765C277.462 173.272 220.64 185.045 220.64 185.045L222.935 168.768Z" fill="#4382FF"/>
<path d="M222.935 168.768C223.19 167.195 224.337 165.877 225.91 165.495L272.575 153.212C273.807 152.83 274.997 153.85 274.87 155.125C274.7 156.995 274.53 159.46 274.827 161.415C275.337 164.985 278.397 168.257 277.93 170.765C277.462 173.272 220.64 185.045 220.64 185.045L222.935 168.768Z" fill="#26293B"/>
<path d="M263.108 153.8L273.068 151.606C274.482 151.167 275.847 152.337 275.701 153.8C275.506 155.945 275.311 158.773 275.652 161.015C276.237 165.111 279.748 168.865 279.211 171.742C279.092 172.38 270.602 171.742 234.484 180.464" stroke="#78D2EE" stroke-width="0.25" stroke-linecap="round"/>
<path d="M205.468 102.298C205.468 102.298 204.49 97.9625 206.743 98.3875C208.995 98.8125 214.69 99.28 216.943 101.193C219.195 103.105 219.365 105.655 219.365 105.655C219.365 105.655 216.305 104.933 214.393 103.828C212.183 102.595 205.723 103.743 205.468 102.298Z" fill="#2A2A2A" fill-opacity="0.5"/>
<path d="M227.267 165.118C226.427 165.118 223.966 165.717 223.26 168.113C222.554 170.51 221.578 179.666 221.179 183.945" stroke="white" stroke-width="0.25" stroke-linecap="round"/>
<path d="M201.607 120.955C201.522 121.338 203.689 122.018 204.667 122.74C206.452 124.058 207.004 126.31 202.202 128.35C202.202 128.35 205.389 127.84 206.494 126.438C207.599 125.035 206.749 121.295 201.607 120.955Z" fill="#493630"/>
<path opacity="0.5" d="M208.528 109.735C204.278 112.115 209.803 122.357 209.803 122.357C209.803 122.357 209.633 118.277 209.165 115.26C208.953 114.07 208.4 112.455 208.528 109.735Z" fill="#44322D"/>
<path d="M211.12 106.845C209.973 106.335 208.57 108.587 208.57 108.587C208.57 108.587 209.718 112.072 209.76 112.837C209.803 113.9 207.933 114.92 207.933 114.92C207.933 114.92 208.23 115.302 208.57 115.727C209.208 116.577 210.398 116.79 211.29 116.195L216.22 112.795C216.22 112.795 216.178 110.457 214.69 108.842C214.35 108.503 212.013 107.27 211.12 106.845Z" fill="#493630"/>
<path d="M213.671 112.667C212.141 111.605 208.486 108.715 208.486 108.715C208.486 108.715 209.846 110.755 209.888 112.03C209.931 113.73 208.528 115.302 208.528 115.302C208.528 115.302 213.161 112.922 213.671 112.667Z" fill="#FFF5EA"/>
<path d="M211.078 112.752C211.375 111.605 210.398 109.607 209.633 108.672C207.763 111.18 207.72 112.582 208.485 115.387C209.335 114.792 210.738 113.9 211.078 112.752Z" fill="#30281D"/>
<path d="M208.996 109.82C209.931 111.393 209.846 113.22 208.231 113.985C207.933 113.348 207.721 111.605 208.996 109.82Z" fill="#282218"/>
<path d="M209.718 107.44C209.123 107.865 208.018 108.758 208.018 109.693L213.67 112.625L213.84 111.732L209.718 107.44Z" fill="#493630"/>
<path d="M208.273 115.558C208.273 115.558 207.55 114.453 207.763 114.495C207.975 114.538 213.67 112.668 213.67 112.668L214.35 113.178L208.273 115.558Z" fill="#493630"/>
<path d="M207.551 114.367C207.806 113.857 210.611 113.135 212.736 112.625C211.078 112.072 208.188 110.245 207.763 109.65C207.253 108.885 207.466 107.652 207.508 107.652C207.763 107.652 207.721 108.715 208.188 109.395C208.486 109.82 211.546 111.732 213.756 112.455L214.606 112.752L213.713 112.965C211.121 113.56 208.231 114.325 207.976 114.665C207.763 115.047 207.678 115.387 207.721 115.387C207.806 115.43 207.168 115.047 207.551 114.367Z" fill="#282218"/>
<path d="M216.645 112.88C216.645 112.88 211.843 113.432 211.248 114.24C210.653 115.047 210.27 116.833 210.27 116.833L213.033 117.513L216.645 112.88Z" fill="#543E36"/>
<path opacity="0.7" d="M248.868 105.12C243.497 104.952 207.752 106.786 207.752 106.786V113.262L248.366 109.137C250.773 109.559 255.754 112.697 258.075 114.227C258.754 114.675 259.675 114.481 260.103 113.789C260.942 112.437 260.655 110.677 259.358 109.757C256.774 107.924 252.398 105.232 248.868 105.12Z" fill="#B3CAF8"/>
<path d="M249.14 116.027C247.95 112.925 243.955 114.115 241.745 115.39L241.405 119.385C240.512 118.45 239.917 114.327 240.682 112.245L244.975 108.887L250.287 109.355C251.435 110.927 255.26 114.242 253.39 119.002C252.412 121.552 248.162 125.802 244.932 127.332C246.887 124.867 250.372 119.13 249.14 116.027Z" fill="#3F2E2A"/>
<path d="M248.29 115.9C246.717 113.732 243.785 113.265 241.787 114.285L242.17 121.467L239.407 124.485L242.807 128.735L245.91 127.8L250.457 122.7C250.84 120.702 249.862 118.067 248.29 115.9Z" fill="#3F2E2A"/>
<path d="M242 119.767C242 119.767 243.445 117.94 244.805 117.685C247.908 117.047 249.353 123.592 251.775 121.595C255.43 118.577 252.073 112.5 246.08 111.99C239.195 111.395 242 119.767 242 119.767Z" fill="#493630"/>
<path d="M239.408 115.475L242.638 123.04C243.615 119.937 241.023 113.562 242.255 110.035C238.43 112.287 239.408 115.475 239.408 115.475Z" fill="#493630"/>
<path d="M253.433 112.16C250.288 107.017 247.653 106.72 244.04 108.25C241.448 109.355 239.875 112.032 239.62 114.837L239.535 115.815C243.445 109.695 249.268 107.272 251.775 111.99C255.515 118.96 251.35 122.785 247.865 123.847C244.848 124.782 242.808 121.51 240.853 117.642C237.58 122.615 237.198 126.695 241.618 129.415C244.253 131.03 246.93 128.437 249.523 126.142C253.518 122.53 256.62 117.345 253.433 112.16Z" fill="#493630"/>
<path d="M248.483 124.074C249.443 123.211 249.217 121.394 247.977 120.014C246.738 118.635 244.955 118.217 243.995 119.079C243.034 119.942 243.261 121.76 244.5 123.139C245.739 124.519 247.523 124.937 248.483 124.074Z" fill="white"/>
<path d="M246.122 121.34C246.505 121.765 246.462 122.36 246.037 122.742L238.345 129.627C237.92 130.01 237.325 129.967 236.942 129.542C236.56 129.117 236.602 128.522 237.027 128.14L244.72 121.255C245.102 120.872 245.74 120.915 246.122 121.34Z" fill="white"/>
<path d="M246.505 119.64L247.695 121C247.908 121.212 247.865 121.552 247.653 121.765C247.44 121.977 247.1 121.935 246.888 121.722L245.698 120.362C245.485 120.15 245.528 119.81 245.74 119.597C245.995 119.385 246.335 119.427 246.505 119.64Z" fill="#192439"/>
<path d="M243.785 122.062C243.785 122.062 242.893 121.552 244.678 119.215C245.188 118.577 241.49 113.35 241.49 113.35C241.065 113.817 242.17 118.45 241.235 119.98C240.3 121.51 240.683 122.997 241.788 123.805L243.785 122.062Z" fill="#493630"/>
<path d="M249.14 121.977C248.502 122.615 246.93 124.952 244.847 123.89C244.847 123.89 246.25 125.76 247.822 125.845C250.967 126.015 253.092 118.79 253.092 118.79C251.605 120.235 249.777 121.34 249.14 121.977Z" fill="#493630"/>
<path d="M209.576 111.652C209.576 118.582 208.494 124.2 207.159 124.2C206.726 124.2 204.898 124.2 204.898 124.2C204.167 122.043 204.742 116.331 204.742 111.652C204.742 108.253 204.32 101.363 204.742 99.1036C204.742 99.1036 206.479 99.1036 207.159 99.1036C208.494 99.1036 209.576 104.721 209.576 111.652Z" fill="#4382FF"/>
<path d="M204.992 124.2C206.327 124.2 207.409 118.582 207.409 111.652C207.409 104.722 206.327 99.104 204.992 99.104C203.658 99.104 202.576 104.722 202.576 111.652C202.576 118.582 203.658 124.2 204.992 124.2Z" fill="#FFE458"/>
<path d="M202.623 106.921C203.569 106.984 203.614 106.569 204.095 107.18C204.095 109.048 204.039 112.475 203.813 111.234C203.588 109.993 201.602 109.497 201.602 109.497C201.602 109.497 201.012 106.816 202.623 106.921Z" fill="#8FE4FF"/>
<path d="M205.68 137.318C205.17 137.275 204.15 137.148 202.96 137.063C201.983 136.978 198.455 137.02 197.435 136.34C195.14 134.852 196.925 130.73 197.988 131.24C197.988 131.24 197.988 131.24 197.988 131.197C198.03 131.197 198.03 131.197 198.03 131.24C198.328 132.387 199.093 133.875 200.708 134.725C201.43 135.107 202.195 135.49 202.918 135.83C203.13 135.915 203.3 136.042 203.513 136.127C204.448 136.595 205.255 136.977 205.68 137.19C205.765 137.275 205.765 137.318 205.68 137.318Z" fill="#5B433B"/>
<path d="M203.683 138.593C204.023 138.338 205.68 137.36 205.68 137.36L198.583 136.85C198.243 136.978 197.988 137.148 197.818 137.318C196.033 139.358 196.628 141.143 197.648 142.248C197.648 142.205 202.28 139.655 203.683 138.593Z" fill="#5B433B"/>
<path d="M235.166 147.525L216.836 155.38C219.618 155.38 234.332 151.395 236.557 149.243C237.756 148.083 239.203 142.997 239.83 140.651L235.166 147.525Z" fill="#192439"/>
<path opacity="0.4" fill-rule="evenodd" clip-rule="evenodd" d="M238.419 131.713C233.035 147.119 221.306 175.837 217.182 176.387C217.182 176.386 217.181 176.386 217.181 176.385C217.146 176.411 217.11 176.437 217.075 176.462C211.646 180.285 201.604 175.376 194.646 165.496C187.688 155.617 186.449 144.508 191.878 140.685C192.848 140.002 193.964 139.598 195.185 139.45C200.448 137.578 211.658 133.648 218.385 131.713C227.338 129.136 235.942 127.575 235.942 127.575C235.942 127.575 237.416 128.235 237.942 129.051C238.514 129.939 238.419 131.713 238.419 131.713Z" fill="#B3CAF8"/>
<path d="M233.821 133.3C235.408 135.829 236.321 138.435 236.522 140.597C236.724 142.772 236.203 144.431 235.018 145.175C233.832 145.919 232.112 145.667 230.241 144.54C228.381 143.419 226.431 141.464 224.844 138.935C223.257 136.407 222.344 133.801 222.143 131.639C221.941 129.464 222.462 127.805 223.647 127.061C224.833 126.317 226.552 126.569 228.424 127.696C230.284 128.817 232.234 130.772 233.821 133.3Z" stroke="#78D2EE" stroke-width="0.25"/>
<path d="M225.241 142.474C228.217 146.745 230.048 151.199 230.611 154.943C231.176 158.701 230.455 161.669 228.435 163.077C226.414 164.486 223.38 164.134 220.05 162.303C216.733 160.479 213.188 157.219 210.211 152.948C207.236 148.678 205.404 144.223 204.842 140.48C204.277 136.722 204.997 133.753 207.018 132.345C209.038 130.937 212.072 131.289 215.403 133.12C218.719 134.943 222.265 138.204 225.241 142.474Z" stroke="#78D2EE" stroke-width="0.25"/>
<path d="M215.688 150.677C219.701 156.375 222.058 162.419 222.634 167.578C223.21 172.745 221.997 176.969 218.946 179.118C215.895 181.267 211.508 180.986 206.837 178.702C202.174 176.423 197.278 172.167 193.265 166.469C189.253 160.772 186.895 154.728 186.32 149.569C185.743 144.402 186.956 140.177 190.008 138.029C193.059 135.88 197.445 136.161 202.116 138.444C206.779 140.724 211.676 144.979 215.688 150.677Z" stroke="#78D2EE" stroke-width="0.25"/>
<path d="M237.918 129.168C238.295 129.767 238.496 130.385 238.525 130.893C238.555 131.409 238.409 131.758 238.162 131.913C237.915 132.068 237.537 132.048 237.085 131.797C236.641 131.549 236.172 131.1 235.796 130.5C235.419 129.901 235.218 129.283 235.189 128.775C235.158 128.259 235.305 127.91 235.552 127.755C235.799 127.6 236.177 127.619 236.629 127.871C237.073 128.118 237.542 128.568 237.918 129.168Z" stroke="#78D2EE" stroke-width="0.25"/>
<path d="M298.755 220.667C297.239 214.982 294.363 202.988 286.191 197.714C272.58 188.929 254.87 194.563 246.135 201.793C239.146 207.577 239.371 213.92 236.902 222.358" stroke="#78D2EE" stroke-width="0.25" stroke-linecap="round"/>
<path opacity="0.89" fill-rule="evenodd" clip-rule="evenodd" d="M311.363 143.986C306.312 143.986 302.217 148.081 302.217 153.131C302.217 158.182 306.312 162.276 311.363 162.276C316.413 162.276 320.508 158.182 320.508 153.131C320.508 148.081 316.413 143.986 311.363 143.986ZM293.292 153.131C293.292 143.151 301.383 135.061 311.363 135.061C321.342 135.061 329.433 143.151 329.433 153.131C329.433 163.111 321.342 171.201 311.363 171.201C301.383 171.201 293.292 163.111 293.292 153.131Z" fill="#151515" fill-opacity="0.2"/>
<path d="M307.835 160.31C314.873 160.31 320.578 154.605 320.578 147.568C320.578 140.53 314.873 134.825 307.835 134.825C300.798 134.825 295.093 140.53 295.093 147.568C295.093 154.605 300.798 160.31 307.835 160.31Z" stroke="#FFE458" stroke-width="5"/>
<path opacity="0.89" fill-rule="evenodd" clip-rule="evenodd" d="M52.6048 167.322L45.6365 169.953C39.8767 172.157 36.9613 178.628 39.1656 184.388L43.4448 195.665L32.126 199.96C26.3663 202.164 23.451 208.635 25.6553 214.394L28.2862 221.363C30.4905 227.123 36.9612 230.038 42.721 227.834L54.0226 223.546L58.2934 234.802C60.4975 240.561 66.9681 243.477 72.7277 241.273L79.6964 238.642C85.456 236.437 88.3711 229.967 86.1671 224.207L81.9026 212.968L93.1354 208.706C98.895 206.502 101.81 200.031 99.606 194.271L96.9752 187.303C94.7708 181.543 88.3711 178.628 82.5405 180.832L71.3248 185.087L67.0395 173.793C64.835 168.033 58.3644 165.118 52.6048 167.322Z" fill="black" fill-opacity="0.2"/>
<path opacity="0.7" d="M38.064 179.367L44.0483 177.107C48.9944 175.214 54.5509 177.718 56.4438 182.664L72.8696 225.958C74.7626 230.904 72.2593 236.46 67.3132 238.353L61.3288 240.612C56.383 242.505 50.8262 240.002 48.9332 235.056L32.5073 191.763C30.6144 186.816 33.1179 181.26 38.064 179.367Z" fill="#B3CAF8"/>
<path opacity="0.89" d="M82.1512 194.266L84.4105 200.25C86.3035 205.196 83.7998 210.753 78.8537 212.646L35.5603 229.072C30.6143 230.965 25.0576 228.461 23.1646 223.515L20.9053 217.531C19.0124 212.585 21.5159 207.028 26.462 205.135L69.7557 188.709C74.7626 186.816 80.2583 189.32 82.1512 194.266Z" fill="#B3CAF8"/>
</g>
<defs>
<clipPath id="clip0_4_441">
<rect width="340" height="255" fill="white"/>
</clipPath>
</defs>
</svg>
