<svg width="151" height="113" viewBox="0 0 151 113" fill="none" xmlns="http://www.w3.org/2000/svg">
<path opacity="0.3" d="M135.655 29.1871C135.655 48.7923 90.1567 97.9904 70.508 97.9904C50.8595 97.9904 6.96484 68.9933 6.96484 49.3882C6.96484 29.7828 35.157 11.8991 56.0398 8.74258C76.9225 5.58604 135.655 9.58191 135.655 29.1871Z" fill="#E27430"/>
<g opacity="0.2">
<path opacity="0.2" d="M9.12305 65.6878H53.8238V70.6881H9.12305V65.6878Z" fill="#FFC7A8"/>
<path opacity="0.2" d="M9.12305 73.7014H53.8238V78.7017H9.12305V73.7014Z" fill="#FFC7A8"/>
<path opacity="0.2" d="M9.12305 81.715H53.8238V86.7153H9.12305V81.715Z" fill="#FFC7A8"/>
<path opacity="0.2" d="M10.1279 90.8592H17.2749V97.9904H10.1279V90.8592Z" fill="#FFC7A8"/>
<path opacity="0.2" d="M21.8049 90.8592H28.9519V97.9904H21.8049V90.8592Z" fill="#FFC7A8"/>
<path opacity="0.2" d="M33.4819 90.8592H40.6288V97.9904H33.4819V90.8592Z" fill="#FFC7A8"/>
<path opacity="0.2" d="M45.1589 90.8592H52.306V97.9904H45.1589V90.8592Z" fill="#FFC7A8"/>
</g>
<path opacity="0.2" d="M52.3059 36.6131H138.961V41.6134H52.3059V36.6131Z" fill="#FFC7A8"/>
<path fill-rule="evenodd" clip-rule="evenodd" d="M81.6804 68.6893C81.7057 68.6437 81.7631 68.6274 81.8088 68.6524C92.8469 74.7365 101.896 75.2825 110.577 74.5489C113.16 74.3307 115.706 73.9998 118.263 73.6673C120.01 73.4402 121.762 73.2125 123.535 73.0195C127.898 72.5443 132.374 72.282 137.161 72.7673C137.213 72.7726 137.25 72.8189 137.245 72.8705C137.24 72.9223 137.194 72.96 137.142 72.9547C132.373 72.4712 127.913 72.7323 123.555 73.2067C121.791 73.3988 120.042 73.6261 118.296 73.853C115.733 74.1862 113.178 74.5182 110.593 74.7367C101.887 75.4723 92.7971 74.9243 81.7174 68.8174C81.6718 68.7922 81.6553 68.7349 81.6804 68.6893Z" fill="#FFC7A8"/>
<path opacity="0.2" d="M94.26 46.1334H138.961V51.1336H94.26V46.1334Z" fill="#FFC7A8"/>
<path opacity="0.2" d="M87.3647 55.6536H138.961V60.6539H87.3647V55.6536Z" fill="#FFC7A8"/>
<path fill-rule="evenodd" clip-rule="evenodd" d="M137.483 17.5914C135.405 16.5601 132.913 15.997 131.253 15.7953L131.276 15.6083C132.95 15.8117 135.465 16.3791 137.567 17.4228C139.664 18.4637 141.387 19.997 141.405 22.1452C141.439 26.3396 140.581 29.8128 140.145 31.0311L139.967 30.9678C140.396 29.7697 141.25 26.3185 141.216 22.1467C141.199 20.1117 139.567 18.6255 137.483 17.5914Z" fill="#FFC7A8"/>
<path fill-rule="evenodd" clip-rule="evenodd" d="M34.525 8.9687C23.0913 14.2243 15.5252 21.5193 13.1762 24.5024L13.0278 24.386C15.3951 21.3798 22.9849 14.0658 34.446 8.79764L34.525 8.9687Z" fill="#FFC7A8"/>
<path d="M118.876 37.7682C124.304 37.4466 128.442 32.7957 128.12 27.3801C127.798 21.9645 123.136 17.835 117.709 18.1566C112.281 18.4782 108.143 23.1292 108.465 28.5447C108.787 33.9603 113.448 38.0898 118.876 37.7682Z" fill="#FFC7A8"/>
<path d="M37.4631 20.3984L26.3608 24.4491L30.4205 35.5268L41.5227 31.4761L37.4631 20.3984Z" fill="#FFC7A8"/>
<path d="M37.4631 20.3984L26.3608 24.4491L30.4205 35.5268L41.5227 31.4761L37.4631 20.3984Z" fill="black" fill-opacity="0.21"/>
<path d="M68.5811 54.7961L70.4904 61.3972C71.2945 62.6739 71.1605 56.5499 71.2945 54.4272L68.5811 54.7961Z" fill="#F1F2F2"/>
<path d="M90.4126 52.6655L88.474 61.5245C88.2492 56.7586 89.0359 57.0949 87.5466 53.5626L90.4126 52.6655Z" fill="#F1F2F2"/>
<path d="M20.5111 46.8481C19.9087 48.3742 22.5608 58.0364 24.5296 60.6891C25.2276 60.1529 30.3352 59.3399 31.0866 57.6754C32.0258 55.5949 30.5296 45.7639 30.3173 44.5312C30.1051 43.2986 27.4732 49.0578 27.4732 49.0578C27.4732 49.0578 27.0893 41.8857 26.5438 40.5847C26.2937 39.9883 21.7573 43.6916 20.5111 46.8481Z" fill="#E27430"/>
<path d="M22.1102 49.4119C21.6702 47.6397 21.3222 46.0598 21.0906 44.5877" stroke="#005B9D" stroke-width="0.445363" stroke-linecap="round"/>
<path d="M23.593 48.4642C23.3871 47.5449 22.6149 43.8414 22.4631 42.8057" stroke="#005B9D" stroke-width="0.445363" stroke-linecap="round"/>
<path d="M25.3843 47.7163C25.0172 45.8497 24.4366 42.1335 24.3247 40.8836" stroke="#005B9D" stroke-width="0.445363" stroke-linecap="round"/>
<path d="M126.619 51.7331C127.795 52.8783 129.349 62.7758 128.644 66.0008C127.787 65.7976 122.795 67.1465 121.425 65.936C119.713 64.4232 117.329 56.9249 117.043 55.8197C116.73 54.6087 121.178 56.5979 121.178 56.5979C121.178 56.5979 118.579 49.8998 118.542 48.4902C118.525 47.8438 124.185 49.3646 126.619 51.7331Z" fill="#E27430"/>
<path d="M126.214 54.7259C125.887 52.9294 125.555 51.3461 125.161 49.9089" stroke="#005B9D" stroke-width="0.445363" stroke-linecap="round"/>
<path d="M124.473 54.4685C124.282 53.5458 123.464 49.852 123.177 48.8456" stroke="#005B9D" stroke-width="0.445363" stroke-linecap="round"/>
<path d="M122.531 54.5197C122.099 52.667 121.1 49.0403 120.689 47.8544" stroke="#005B9D" stroke-width="0.445363" stroke-linecap="round"/>
<path fill-rule="evenodd" clip-rule="evenodd" d="M54.3079 75.2303C64.3152 78.8201 74.6044 78.9326 77.8654 78.432C85.5545 77.2515 91.1587 78.2312 96.2634 79.1235C97.0446 79.2601 97.8142 79.3946 98.5777 79.519C103.711 80.3554 109.854 81.0521 120.233 79.6537C120.25 79.2595 120.254 78.8081 120.241 78.2973C120.143 74.6051 119.181 69.4312 117.774 64.0409L131.44 60.4878C132.936 66.2163 134.218 72.6183 134.358 77.9244C134.427 80.5059 134.253 83.4885 133.265 86.1504C132.201 89.0169 129.738 92.4476 125.085 93.1838C111.35 95.3564 103.077 94.5301 96.3015 93.4259C95.3676 93.2738 94.4946 93.1242 93.6664 92.9824C88.6619 92.1253 85.2942 91.5486 80.0128 92.3592C74.3933 93.222 61.7248 92.8653 49.53 88.4905C37.1626 84.0539 23.8583 74.8898 20.2476 57.2481L34.0844 54.4285C36.3313 65.4061 44.4732 71.7023 54.3079 75.2303Z" fill="#FFC7A8"/>
<path d="M55.0454 84.1909L108.767 87.5306C108.767 87.5306 109.044 97.4039 104.233 104.204C99.4226 111.005 72.3749 108.067 65.2026 106.937C58.0301 105.807 57.6794 100.341 55.0454 84.1909Z" fill="#FFC7A8"/>
<path d="M68.2802 32.4973C68.3323 32.4954 68.3729 32.4517 68.371 32.3997C68.3691 32.3478 68.3253 32.3073 68.2732 32.3091L68.2802 32.4973ZM52.7853 35.2818C55.3302 34.4516 61.9952 32.7318 68.2802 32.4973L68.2732 32.3091C61.965 32.5444 55.2819 34.2693 52.7268 35.1027L52.7853 35.2818Z" fill="#FFC7A8"/>
<path fill-rule="evenodd" clip-rule="evenodd" d="M79.4364 98.9308C88.1325 99.6116 95.1762 98.7076 104.572 94.7066C105.026 94.5134 105.554 94.6068 105.909 94.9494C95.9794 99.2925 88.1502 100.643 80.8435 100.256C73.5493 99.8711 66.7437 97.7527 64.6827 96.6681C64.4523 96.5468 64.3639 96.2621 64.4855 96.0321C64.607 95.802 64.8926 95.7138 65.1231 95.8353C67.0342 96.841 72.2414 98.5507 79.4364 98.9308Z" fill="#E27430"/>
<path fill-rule="evenodd" clip-rule="evenodd" d="M70.1022 89.0295C78.5389 91.24 85.6316 91.5982 95.5906 89.3254C96.0715 89.2156 96.5745 89.4009 96.8624 89.8009C86.318 92.3161 78.373 92.2575 71.2509 90.5834C64.1412 88.912 57.8208 85.6218 55.9855 84.1891C55.7804 84.0291 55.7441 83.733 55.9046 83.5283C56.0652 83.3234 56.3617 83.2872 56.5671 83.4475C58.2688 84.7758 63.0891 87.3808 70.1022 89.0295Z" fill="#E27430"/>
<path d="M110.586 83.8345C109.962 84.0313 109.357 83.8773 109.235 83.4904C109.112 83.1036 109.361 82.8034 109.984 82.6066C110.608 82.4098 111.428 82.2337 111.551 82.6205C111.674 83.0074 111.209 83.6377 110.586 83.8345Z" fill="black" fill-opacity="0.42"/>
<path d="M37.8522 73.0967C38.1155 73.6941 39.0636 75.0134 38.4649 75.2761C37.8664 75.5386 36.2025 74.754 35.9392 74.1568C35.6759 73.5594 34.8766 71.9665 35.4753 71.7038C36.0738 71.441 37.5889 72.4993 37.8522 73.0967Z" fill="black" fill-opacity="0.42"/>
<path d="M70.838 101.999C70.838 102.651 70.3078 102.886 69.6538 102.886C68.9999 102.886 68.4697 102.651 68.4697 101.999C68.4697 101.346 68.9999 100.817 69.6538 100.817C70.3078 100.817 70.838 101.346 70.838 101.999Z" fill="black" fill-opacity="0.42"/>
<path d="M76.8934 11.8933H74.1067C70.764 11.8933 68.0542 14.5971 68.0542 17.9324V20.7131C68.0542 24.0484 70.764 26.7522 74.1067 26.7522H76.8934C80.2361 26.7522 82.9459 24.0484 82.9459 20.7131V17.9324C82.9459 14.5971 80.2361 11.8933 76.8934 11.8933Z" fill="#FFC7A8"/>
<path d="M76.8934 11.8933H74.1067C70.764 11.8933 68.0542 14.5971 68.0542 17.9324V20.713C68.0542 24.0483 70.764 26.7521 74.1067 26.7521H76.8934C80.2361 26.7521 82.9459 24.0483 82.9459 20.713V17.9324C82.9459 14.5971 80.2361 11.8933 76.8934 11.8933Z" fill="white" fill-opacity="0.22"/>
<path d="M25.7303 51.1871C25.7303 51.1871 24.9461 51.961 22.6662 53.0797C18.2066 55.2681 12.0619 53.3317 12.1153 48.3731C12.1788 42.4878 17.4766 37.019 25.7303 32.519C40.0646 24.7035 53.3509 19.6799 75.338 19.113C113.187 18.1373 128.196 33.6586 139.559 44.8258C146.749 51.8909 143.82 58.3566 119.678 54.6841" stroke="#FFE458" stroke-width="0.890723" stroke-dasharray="1.11 2.01"/>
<path d="M76.7999 18.0258H74.2002V20.6198H76.7999V18.0258Z" fill="#E27430"/>
<path d="M119.777 27.4878L117.526 26.1908L116.226 28.4372L118.477 29.7342L119.777 27.4878Z" fill="#E27430"/>
<path d="M27.4633 50.9476C27.4633 52.0073 26.6022 52.8665 25.5401 52.8665C24.478 52.8665 23.6169 52.0073 23.6169 50.9476C23.6169 49.8878 24.478 49.0286 25.5401 49.0286C26.6022 49.0286 27.4633 49.8878 27.4633 50.9476Z" fill="#F1F2F2"/>
<path d="M119.449 56.0905C120.511 56.0905 121.372 55.2314 121.372 54.1716C121.372 53.1119 120.511 52.2527 119.449 52.2527C118.387 52.2527 117.526 53.1119 117.526 54.1716C117.526 55.2314 118.387 56.0905 119.449 56.0905Z" fill="#F1F2F2"/>
<path d="M74.7158 79.0275C76.0333 75.1411 74.4861 73.1543 73.8232 67.545C76.6526 65.847 84.5271 63.2356 85.1371 68.6971C85.8032 74.6589 87.3776 76.5594 86.5093 80.3163C85.512 84.631 72.405 85.8444 74.7158 79.0275Z" fill="#D08E0D"/>
<path d="M71.5395 67.1436C72.4 66.8943 72.6994 65.3242 72.2083 63.6367C71.7172 61.9493 70.6215 60.7834 69.7611 61.0327C68.9006 61.282 68.6012 62.8521 69.0923 64.5396C69.5835 66.227 70.6791 67.3929 71.5395 67.1436Z" fill="#D08E0D"/>
<path fill-rule="evenodd" clip-rule="evenodd" d="M71.2833 67.177C70.8919 66.2372 70.6404 64.9982 70.399 63.8071C70.1901 62.777 69.9885 61.7829 69.7097 61.0494C69.7267 61.0432 69.7437 61.0377 69.7611 61.0326C69.9759 60.9705 70.2054 60.9965 70.4364 61.0967L71.1993 61.6924C71.322 61.8323 71.4406 61.9909 71.5529 62.1656L72.3649 66.0071C72.2356 66.6009 71.9521 67.0241 71.5395 67.1435C71.456 67.1678 71.3705 67.1785 71.2833 67.177Z" fill="#B87B05"/>
<path d="M87.3706 67.1436C86.5102 66.8943 86.2108 65.3242 86.7019 63.6367C87.193 61.9493 88.2886 60.7834 89.1491 61.0327C90.0095 61.282 90.3089 62.8521 89.8178 64.5396C89.3267 66.227 88.2311 67.3929 87.3706 67.1436Z" fill="#D08E0D"/>
<path d="M74.9403 73.5525C74.8561 73.1251 74.7585 72.6814 74.6553 72.2106C74.5664 71.8057 74.4731 71.3808 74.3799 70.9294C75.257 71.1601 76.307 71.7874 77.3672 72.4208C78.8655 73.3159 80.3838 74.2233 81.4629 74.04C81.3729 74.0762 81.2727 74.1205 81.1624 74.1691C80.0775 74.6478 78.0179 75.5565 74.9403 73.5525Z" fill="#B87B05"/>
<path d="M78.9983 53.7824C74.618 53.7824 69.7256 49.5929 69.7256 54.3526C70.2299 58.5903 71.1846 67.6932 71.7782 68.73C72.3721 69.7666 74.7018 71.6397 75.6914 72.6311C77.0206 73.6321 78.6404 74.1736 80.3056 74.1736C81.7156 74.1736 82.9226 73.6958 84.2797 72.811C85.9851 71.6993 86.7308 69.9911 87.2688 68.7588L87.2814 68.73C88.15 66.7404 87.9152 65.0771 88.3937 61.8888C88.3937 59.4638 89.5258 54.2402 87.8165 53.332C86.1706 52.4578 81.1468 53.7824 78.9983 53.7824Z" fill="#F5B73C"/>
<path d="M78.4994 69.789C78.4292 69.7135 78.3107 69.7089 78.235 69.779C78.1591 69.8493 78.1548 69.9673 78.225 70.0431L78.4994 69.789ZM81.5139 69.9722C81.5904 69.9027 81.596 69.7847 81.5266 69.7084C81.4569 69.6319 81.3386 69.6263 81.2621 69.6958L81.5139 69.9722ZM78.225 70.0431C78.6604 70.5116 79.2659 70.6943 79.8641 70.6613C80.4607 70.6284 81.0628 70.3811 81.5139 69.9722L81.2621 69.6958C80.8754 70.0464 80.355 70.2602 79.8435 70.2884C79.3335 70.3165 78.8448 70.1606 78.4994 69.789L78.225 70.0431Z" fill="#D08E0D"/>
<path d="M74.7709 59.693H76.6008L72.4661 64.9686L71.3721 63.7107L74.7709 59.693Z" fill="white" fill-opacity="0.392"/>
<path d="M77.3239 61.3795L77.806 61.8792L74.3033 66.1884L73.634 65.7087L77.3239 61.3795Z" fill="white" fill-opacity="0.392"/>
<path d="M84.4322 59.445L86.0272 59.936L81.9941 64.9323L81.0332 63.4627L84.4322 59.445Z" fill="white" fill-opacity="0.392"/>
<path d="M86.9851 61.1317L87.4672 61.6311L83.9645 65.9404L83.2954 65.4607L86.9851 61.1317Z" fill="white" fill-opacity="0.392"/>
<path d="M74.671 65.9754C76.4879 65.9754 77.9608 64.5057 77.9608 62.6928C77.9608 60.8799 76.4879 59.4102 74.671 59.4102C72.854 59.4102 71.3811 60.8799 71.3811 62.6928C71.3811 64.5057 72.854 65.9754 74.671 65.9754Z" stroke="#005B9D" stroke-width="0.991615"/>
<path d="M84.2576 65.9754C86.0746 65.9754 87.5475 64.5057 87.5475 62.6928C87.5475 60.8799 86.0746 59.4102 84.2576 59.4102C82.4407 59.4102 80.9678 60.8799 80.9678 62.6928C80.9678 64.5057 82.4407 65.9754 84.2576 65.9754Z" stroke="#005B9D" stroke-width="0.991615"/>
<path d="M80.9831 66.3758L79.5043 62.3726L78.2451 66.3758C78.2451 66.3758 78.7825 66.9981 79.636 66.9747C80.4897 66.9516 80.9831 66.3758 80.9831 66.3758Z" fill="#D08E0D"/>
<path d="M87.8791 58.2366C88.0061 58.4637 87.9244 58.7506 87.6969 58.8771C87.4693 59.0039 87.1818 58.9223 87.055 58.6954L87.8791 58.2366ZM83.3162 57.6944C83.0758 57.7948 82.7994 57.6818 82.6988 57.4418C82.5982 57.2019 82.7115 56.9262 82.9519 56.8258L83.3162 57.6944ZM87.055 58.6954C86.8709 58.3664 86.4538 57.8935 85.8281 57.6161C85.2201 57.3466 84.3861 57.2477 83.3162 57.6944L82.9519 56.8258C84.2553 56.2815 85.3598 56.3781 86.2113 56.7556C87.0448 57.1251 87.6075 57.7507 87.8791 58.2366L87.055 58.6954Z" fill="#FBFBF6"/>
<path d="M34.7197 26.2914L32.2671 27.1863L33.1639 29.6335L35.6166 28.7387L34.7197 26.2914Z" fill="#E27430"/>
<path d="M88.4321 61.1889C88.3704 61.265 87.9689 56.1851 87.6809 54.0487L88.1128 53.524C88.3006 53.524 88.605 54.5246 88.7702 55.3043C88.9767 56.2787 88.5831 61.0034 88.4321 61.1889Z" fill="#9C9238"/>
<path d="M70.8161 61.544C71.2742 61.3074 71.2866 57.359 71.2106 55.1837C71.0611 55.4986 70.2623 55.7431 69.8816 55.826L70.5539 61.544C70.5539 61.544 70.6606 61.6242 70.8161 61.544Z" fill="#9C9238"/>
<path d="M78.9316 45.3825C74.7376 48.9804 68.5849 48.8004 68.5849 48.8004C66.7986 49.5185 65.9337 51.5455 66.6534 53.3281C67.3732 55.1107 69.2221 57.2738 71.1912 55.2555C78.4101 55.9026 94.1862 55.5937 92.404 48.8004C90.1764 40.3084 83.1258 41.7846 78.9316 45.3825Z" fill="#F1F2F2"/>
<path d="M70.6766 59.0011C70.5828 59.187 70.6579 59.4133 70.8442 59.5069C71.0304 59.6004 71.2574 59.5254 71.351 59.3397L70.6766 59.0011ZM76.0277 57.7807C76.2325 57.8193 76.4301 57.6852 76.469 57.4807C76.5077 57.2763 76.3733 57.0791 76.1683 57.0405L76.0277 57.7807ZM71.351 59.3397C71.6921 58.6632 73.1262 57.2317 76.0277 57.7807L76.1683 57.0405C72.9392 56.4296 71.1706 58.0212 70.6766 59.0011L71.351 59.3397Z" fill="#FBFBF6"/>
</svg>
