<svg width="72" height="42" viewBox="0 0 72 42" fill="none" xmlns="http://www.w3.org/2000/svg">
<path d="M71.9604 40.6605C69.343 41.3264 67.7244 40.6892 66.2722 38.5081C63.012 33.6235 59.4131 28.9627 55.9405 24.2159C55.4928 23.6017 55.0279 22.999 54.4482 22.2356C50.3384 27.7803 46.2344 33.061 42.383 38.554C41.0054 40.517 39.559 41.3723 36.9875 40.6778L52.4392 19.9397L38.0552 1.21059C40.529 0.728447 42.2395 0.975261 43.7548 3.19084C47.1012 8.08119 50.7919 12.7362 54.4711 17.661C58.1733 12.7534 61.8181 8.09266 65.262 3.24824C66.6453 1.28521 68.1319 0.539033 70.6173 1.26225C68.7346 3.75908 66.8921 6.21574 65.0382 8.65517C62.5356 11.9441 60.0789 15.2732 57.4845 18.4933C56.5604 19.6412 56.7097 20.3874 57.5362 21.4722C62.3347 27.7803 67.0758 34.1516 71.9604 40.6605Z" fill="white"/>
<path d="M0.0172196 19.5953C0.430488 17.5232 0.706001 15.411 1.27998 13.379C4.72389 1.07856 18.8439 -4.03564 28.5442 3.58688C34.2267 8.05821 35.6387 14.3606 35.3574 21.4665H3.32911C2.84696 34.2147 12.025 41.9118 23.7228 37.9858C27.8268 36.6082 30.2432 33.3939 31.4543 29.376C32.0685 27.3613 33.0845 27.0456 34.9786 27.6196C34.0086 32.6477 31.8102 36.8493 27.2183 39.4781C20.3305 43.4156 10.4982 42.1414 5.32657 36.6713C2.27298 33.457 0.975773 29.4563 0.401789 25.1342C0.315691 24.4455 0.137756 23.7682 0 23.0851C0.0114797 21.9218 0.0172196 20.7586 0.0172196 19.5953ZM3.38651 18.7401H32.3325C32.1431 9.52187 26.4033 2.97271 18.5569 2.91531C9.94715 2.84644 3.7596 9.24062 3.38651 18.7401Z" fill="white"/>
</svg>
