<svg width="151" height="113" viewBox="0 0 196 138" fill="none" xmlns="http://www.w3.org/2000/svg">
<path d="M46.8143 32.7283H15.5179C14.1548 32.7283 13.0371 31.6105 13.0371 30.2475C13.0371 28.8843 14.1548 27.7665 15.5179 27.7665H46.8143C48.1775 27.7665 49.295 28.8843 49.295 30.2475C49.3223 31.6105 48.2048 32.7283 46.8143 32.7283Z" fill="#F2F2F2"/>
<path d="M8.83898 125.909C4.58615 125.909 2.21438 113.559 0.633204 109.661C-0.348208 107.235 4.42258 106.908 4.20448 106.253C3.00498 102.818 1.9963 99.3833 1.6964 96.8753C1.342 93.8493 6.98518 99.874 6.93065 96.8753C6.87613 92.7315 7.23053 88.9693 8.34826 86.5703C9.90218 88.1788 10.8563 92.5133 11.4288 97.475C11.6469 99.4105 15.7907 96.221 15.927 98.211C16.0633 100.338 14.6184 103.636 14.6184 105.463C14.6184 107.289 19.2257 104.808 19.1439 106.09C19.0348 108.025 15.8997 124.11 13.1463 125.146C10.3929 126.181 8.83898 125.909 8.83898 125.909Z" fill="#A8BBDE"/>
<path d="M66.0338 30.8745C70.2865 30.8745 70.6138 21.7145 70.6138 21.7145C67.6968 22.0963 65.0798 24.9315 65.0798 24.9315C65.0798 24.9315 69.7415 19.3973 65.8703 11.0825C61.4265 15.6625 62.5988 22.8595 62.5988 22.8595C61.5083 19.3428 59.1638 16.9983 59.1638 16.9983C56.4378 22.2053 60.7178 28.5573 60.7178 28.5573C60.7178 28.5573 58.6185 27.8485 57.31 27.4395C58.1553 31.1743 60.7178 30.8473 60.7178 30.8473L66.0338 30.8745Z" fill="#A8BBDE"/>
<path d="M129.008 98.0473C129.008 98.0473 117.422 99.9285 116.632 103.691C115.978 106.744 163.604 105.49 165.566 104.727C168.075 103.745 169.819 101.482 170.174 98.8108L129.008 98.0473Z" fill="#001C59"/>
<path d="M83.3445 105.872H65.9518V135.396H83.3445V105.872Z" fill="#F2F2F2"/>
<path d="M184.677 0.750508H86.1805C84.2723 0.750508 82.7183 2.30441 82.7183 4.21273V28.2848C82.7183 30.193 84.2723 31.747 86.1805 31.747H184.677C186.585 31.747 188.139 30.193 188.139 28.2848V4.21273C188.139 2.30441 186.585 0.750508 184.677 0.750508Z" fill="#A8BBDE"/>
<path d="M157.537 44.5153L139.685 41.8713L133.95 80.5963L151.802 83.2403L157.537 44.5153Z" fill="#3913B8"/>
<path d="M167.693 100.583H128.818C127.373 100.583 126.228 99.4105 126.228 97.993V68.4685C126.228 67.0238 127.4 65.8788 128.818 65.8788H167.693C169.138 65.8788 170.283 67.051 170.283 68.4685V97.9658C170.283 99.4105 169.138 100.583 167.693 100.583Z" fill="#3913B8"/>
<path d="M173.168 54.942L158.207 44.85L136.316 77.3035L151.277 87.3955L173.168 54.942Z" fill="#A8BBDE"/>
<path d="M146.672 46.7233L128.757 48.8925L133.462 87.7545L151.378 85.5853L146.672 46.7233Z" fill="#A8BBDE"/>
<path d="M151.39 85.589L133.452 87.77L130.971 67.2418L149.127 66.9693L151.39 85.589Z" fill="#001C59"/>
<path d="M154.853 86.4883L154.716 86.461L137.051 82.1538L137.078 82.0175L146.374 43.851L146.51 43.8783L164.176 48.1858L164.149 48.322L154.853 86.4883ZM137.378 81.9628L154.662 86.1613L163.849 48.3765L146.565 44.1783L137.378 81.9628Z" fill="#00376E"/>
<path d="M150.055 70.9495C149.591 70.9495 149.128 70.895 148.665 70.7858C145.502 70.0225 143.567 66.833 144.33 63.6705C144.712 62.144 145.638 60.8353 147.001 60.0175C148.337 59.1998 149.946 58.9543 151.473 59.336C154.635 60.0993 156.571 63.289 155.807 66.4513C155.126 69.123 152.726 70.9495 150.055 70.9495ZM150.055 59.4178C149.046 59.4178 148.038 59.6903 147.138 60.2355C145.857 61.0263 144.957 62.253 144.602 63.725C144.248 65.1973 144.493 66.6965 145.257 67.978C146.047 69.2593 147.274 70.1588 148.719 70.5133C151.745 71.2493 154.771 69.3955 155.507 66.3695C155.861 64.8973 155.616 63.398 154.853 62.1168C154.062 60.8353 152.835 59.9358 151.391 59.5813C150.954 59.4723 150.491 59.4178 150.055 59.4178Z" fill="#00376E"/>
<path d="M140.486 82.8625L140.213 82.808L140.567 81.336C139.777 81.0633 139.286 80.2728 139.422 79.4278L137.786 79.0188L137.841 78.746L139.722 79.2095L139.695 79.3458C139.613 79.7275 139.668 80.1093 139.859 80.4363C140.049 80.7635 140.377 81.0088 140.758 81.0905L140.895 81.1178L140.486 82.8625Z" fill="#00376E"/>
<path d="M163.358 51.5933L161.641 51.1845L161.668 51.048C161.859 50.2848 161.368 49.4943 160.605 49.3033L160.468 49.276L160.932 47.395L161.204 47.4495L160.796 49.0853C161.586 49.3578 162.077 50.1485 161.941 50.9935L163.413 51.348L163.358 51.5933Z" fill="#00376E"/>
<path d="M147.41 47.6953L145.529 47.2318L145.584 46.9593L147.219 47.368C147.356 46.9865 147.601 46.6593 147.956 46.4413C148.31 46.223 148.719 46.1413 149.128 46.223L149.482 44.751L149.755 44.8055L149.346 46.523L149.21 46.4958C148.828 46.414 148.446 46.4685 148.119 46.6593C147.792 46.85 147.547 47.1773 147.465 47.559L147.41 47.6953Z" fill="#00376E"/>
<path d="M151.882 85.725L151.609 85.6705L152.072 83.7895L152.209 83.8168C152.59 83.8985 152.972 83.844 153.299 83.6533C153.626 83.4623 153.872 83.1353 153.954 82.7535L153.981 82.6173L155.698 83.026L155.643 83.2988L154.171 82.9443C153.899 83.735 153.108 84.2255 152.263 84.0893L151.882 85.725Z" fill="#00376E"/>
<path d="M164.803 103.5H125.928C124.483 103.5 123.338 102.327 123.338 100.91V71.4125C123.338 69.9678 124.51 68.8228 125.928 68.8228H164.803C166.248 68.8228 167.393 69.995 167.393 71.4125V100.91C167.393 102.355 166.221 103.5 164.803 103.5Z" fill="#E9E1FF"/>
<path d="M173.827 88.8603C173.827 90.0053 172.9 90.9323 171.782 90.9323H152.181C151.036 90.9323 150.109 90.0053 150.109 88.8603V81.854C150.109 81.854 150.49 88.7785 153.189 88.9148C158.887 89.1875 173.827 88.8603 173.827 88.8603Z" fill="#001C59"/>
<path d="M167.393 100.91C167.393 102.355 166.221 103.5 164.803 103.5H125.928C124.483 103.5 123.338 102.327 123.338 100.91V71.4125C123.338 69.9675 125.846 99.0288 129.962 100.31C134.079 101.619 167.393 100.91 167.393 100.91Z" fill="#001C59"/>
<path d="M171.781 91.0685H152.18C150.981 91.0685 149.972 90.087 149.972 88.8603V81.854C149.972 80.6545 150.954 79.6458 152.18 79.6458H171.781C172.981 79.6458 173.99 80.6273 173.99 81.854V88.8603C173.962 90.0598 172.981 91.0685 171.781 91.0685ZM152.18 79.9183C151.117 79.9183 150.245 80.7908 150.245 81.854V88.8603C150.245 89.9235 151.117 90.7958 152.18 90.7958H171.781C172.845 90.7958 173.717 89.9235 173.717 88.8603V81.854C173.717 80.7908 172.845 79.9183 171.781 79.9183H152.18Z" fill="#00376E"/>
<path d="M155.07 87.0335C156.109 87.0335 156.951 86.1915 156.951 85.1525C156.951 84.1138 156.109 83.2715 155.07 83.2715C154.031 83.2715 153.189 84.1138 153.189 85.1525C153.189 86.1915 154.031 87.0335 155.07 87.0335Z" fill="#3913B8"/>
<path d="M187.566 117.539H106.626C104.555 117.539 102.864 115.849 102.864 113.777C102.864 111.705 104.555 110.015 106.626 110.015H187.566C189.638 110.015 191.328 111.705 191.328 113.777C191.355 115.849 189.666 117.539 187.566 117.539Z" fill="#F2F2F2"/>
<path d="M189.829 135.396H104.364C103.519 135.396 102.864 134.714 102.864 133.897V122.174C102.864 121.329 103.546 120.675 104.364 120.675H189.829C190.674 120.675 191.328 121.356 191.328 122.174V133.897C191.355 134.714 190.674 135.396 189.829 135.396Z" fill="#F2F2F2"/>
<path d="M147.11 135.75C151.386 135.75 154.852 132.284 154.852 128.008C154.852 123.732 151.386 120.266 147.11 120.266C142.834 120.266 139.368 123.732 139.368 128.008C139.368 132.284 142.834 135.75 147.11 135.75Z" fill="#3913B8"/>
<path d="M143.485 126.7L147.111 132.152L154.253 121.929C154.444 121.656 154.09 121.356 153.844 121.574L147.083 128.035L143.812 126.318C143.567 126.182 143.321 126.454 143.485 126.7Z" fill="#E9E1FF"/>
<path d="M57.5013 134.005H5.62238C3.52323 134.005 1.833 132.315 1.833 130.216V125.773C1.833 123.674 3.52323 121.983 5.62238 121.983H57.5013C59.6005 121.983 61.2908 123.674 61.2908 125.773V130.216C61.2908 132.315 59.6005 134.005 57.5013 134.005Z" fill="#E9E1FF"/>
<path d="M120.748 10.7827H88.0068V12.7728H120.748V10.7827Z" fill="#3913B8"/>
<path d="M144.929 10.7827H122.411V12.7728H144.929V10.7827Z" fill="#3913B8"/>
<path d="M182.823 14.4087H143.484V16.3988H182.823V14.4087Z" fill="#3913B8"/>
<path d="M141.658 14.4087H88.061V16.3988H141.658V14.4087Z" fill="#3913B8"/>
<path d="M179.279 25.9678H167.639C167.148 25.9678 166.739 25.5588 166.739 25.068V23.923C166.739 23.4323 167.148 23.0235 167.639 23.0235H179.279C179.77 23.0235 180.179 23.4323 180.179 23.923V25.068C180.179 25.586 179.77 25.9678 179.279 25.9678Z" fill="#3913B8"/>
<path d="M163.822 25.9678H152.181C151.69 25.9678 151.281 25.5588 151.281 25.068V23.923C151.281 23.4323 151.69 23.0235 152.181 23.0235H163.822C164.312 23.0235 164.721 23.4323 164.721 23.923V25.068C164.721 25.586 164.34 25.9678 163.822 25.9678Z" fill="#E9E1FF"/>
<path d="M23.0153 16.2625H10.5567C9.65705 16.2625 8.94825 15.5537 8.94825 14.654V2.22271C8.94825 1.32306 9.65705 0.614258 10.5567 0.614258H22.988C23.8878 0.614258 24.5965 1.32306 24.5965 2.22271V14.654C24.6238 15.5537 23.8878 16.2625 23.0153 16.2625ZM10.5567 0.886883C9.82063 0.886883 9.22085 1.48663 9.22085 2.22271V14.654C9.22085 15.3901 9.82063 15.9898 10.5567 15.9898H22.988C23.724 15.9898 24.3238 15.3901 24.3238 14.654V2.22271C24.3238 1.48663 23.724 0.886883 22.988 0.886883H10.5567Z" fill="#00376E"/>
<path d="M46.869 32.8645H15.5727C14.1278 32.8645 12.9556 31.6923 12.9556 30.2475C12.9556 28.8025 14.1278 27.6303 15.5727 27.6303H46.869C48.314 27.6303 49.4863 28.8025 49.4863 30.2475C49.4863 31.6923 48.314 32.8645 46.869 32.8645ZM15.5727 27.8758C14.2641 27.8758 13.2282 28.939 13.2282 30.2203C13.2282 31.5015 14.2914 32.5648 15.5727 32.5648H46.869C48.1778 32.5648 49.2135 31.5015 49.2135 30.2203C49.2135 28.939 48.1503 27.8758 46.869 27.8758H15.5727Z" fill="#3913B8"/>
<path d="M49.3225 34.037H13.0371V35.4003H49.3225V34.037Z" fill="#F2F2F2"/>
<path d="M54.475 101.019H53.2755V84.4983H54.475C54.8293 84.4983 55.102 84.771 55.102 85.1253V100.392C55.102 100.719 54.8293 101.019 54.475 101.019Z" fill="#E9E1FF"/>
<path d="M8.64803 30.7383H9.84753V47.2588H8.64803C8.2936 47.2588 8.021 46.9863 8.021 46.6318V31.3653C8.021 31.011 8.2936 30.7383 8.64803 30.7383Z" fill="#E9E1FF"/>
<path d="M40.763 24.3318H21.5708C20.5076 24.3318 19.6353 23.4595 19.6353 22.3963V19.3975H42.726V22.3963C42.726 23.4595 41.8535 24.3318 40.763 24.3318Z" fill="#F2F2F2"/>
<path d="M25.1958 97.6655H13.9912V94.776H25.1958V97.6655ZM14.2638 97.393H24.9233V95.0485H14.2638V97.393Z" fill="#3913B8"/>
<path d="M48.2053 94.9123H26.5323V97.5295H48.2053V94.9123Z" fill="#3913B8"/>
<path d="M25.1963 102.464H13.9917V99.5743H25.1963V102.464ZM14.2643 102.191H24.9235V99.8468H14.2643V102.191Z" fill="#3913B8"/>
<path d="M48.2053 99.7105H26.5323V102.328H48.2053V99.7105Z" fill="#3913B8"/>
<path d="M25.1963 107.262H13.9917V104.372H25.1963V107.262ZM14.2643 106.989H24.9235V104.645H14.2643V106.989Z" fill="#3913B8"/>
<path d="M48.2053 104.509H26.5323V107.126H48.2053V104.509Z" fill="#3913B8"/>
<path d="M25.1963 112.06H13.9917V109.171H25.1963V112.06ZM14.2643 111.788H24.9235V109.443H14.2643V111.788Z" fill="#00376E"/>
<path d="M48.3685 112.06H26.3955V109.171H48.3413V112.06H48.3685ZM26.668 111.788H48.0685V109.443H26.668V111.788Z" fill="#00376E"/>
<path d="M35.8828 115.849H12.7649C10.6657 115.849 8.94825 114.132 8.94825 112.033V23.7865C8.94825 21.6875 10.6657 19.97 12.7649 19.97H49.5953C51.6945 19.97 53.412 21.6875 53.412 23.7865V27.7395H53.1395V23.7865C53.1395 21.851 51.5583 20.2425 49.5953 20.2425H12.7649C10.8293 20.2425 9.22085 21.8238 9.22085 23.7865V112.033C9.22085 113.968 10.802 115.577 12.7649 115.577H35.8828V115.849Z" fill="#00376E"/>
<path d="M48.2315 126.754H13.0366V127.027H48.2315V126.754Z" fill="#00376E"/>
<path d="M55.1013 128.99H13.0366V129.262H55.1013V128.99Z" fill="#00376E"/>
<path d="M49.595 115.85H45.642V115.577H49.595C51.5305 115.577 53.139 113.996 53.139 112.033V53.6928H53.4118V112.033C53.4118 114.132 51.6943 115.85 49.595 115.85Z" fill="#00376E"/>
<path d="M48.7775 41.3433H25.9868V50.9668H48.7775V41.3433Z" fill="#3913B8"/>
<path d="M23.3423 51.1028H13.4463V41.2068H23.3423V51.1028ZM13.7189 50.8303H23.0698V41.4795H13.7189V50.8303Z" fill="#3913B8"/>
<path d="M13.663 41.254L13.4702 41.4468L23.0893 51.0658L23.282 50.873L13.663 41.254Z" fill="#3913B8"/>
<path d="M23.1078 41.254L13.4888 50.873L13.6815 51.0658L23.3005 41.4468L23.1078 41.254Z" fill="#3913B8"/>
<path d="M39.3995 80.7363H25.9595V81.9903H39.3995V80.7363Z" fill="#00376E"/>
<path d="M48.2323 84.498H25.9595V85.234H48.2323V84.498Z" fill="#E9E1FF"/>
<path d="M48.2323 85.8613H25.9595V86.5975H48.2323V85.8613Z" fill="#E9E1FF"/>
<path d="M48.2323 88.233H25.9595V88.969H48.2323V88.233Z" fill="#E9E1FF"/>
<path d="M48.2323 89.5963H25.9595V90.3323H48.2323V89.5963Z" fill="#E9E1FF"/>
<path d="M23.8873 90.4688H13.9912V80.5728H23.8873V90.4688ZM14.2638 90.196H23.6145V80.8453H14.2638V90.196Z" fill="#3913B8"/>
<path d="M14.2074 80.6245L14.0147 80.8175L23.6338 90.4365L23.8265 90.2438L14.2074 80.6245Z" fill="#3913B8"/>
<path d="M23.6533 80.6245L14.0342 90.2438L14.227 90.4365L23.846 80.8173L23.6533 80.6245Z" fill="#3913B8"/>
<path d="M12.9009 64.2705V54.3745H49.486V64.2705H12.9009ZM13.1735 63.998H49.2135V54.6473H13.1735V63.998Z" fill="#3913B8"/>
<path d="M13.0591 54.3948L12.9893 54.6583L49.301 64.279L49.371 64.0155L13.0591 54.3948Z" fill="#3913B8"/>
<path d="M49.3155 54.3945L13 64.004L13.0697 64.2675L49.3853 54.658L49.3155 54.3945Z" fill="#3913B8"/>
<path d="M59.8455 77.2468H5.04963C4.74975 77.2468 4.5044 77.0013 4.5044 76.7015V68.1685C4.5044 67.8688 4.74975 67.6233 5.04963 67.6233H59.8455C60.1455 67.6233 60.3908 67.8688 60.3908 68.1685V76.7015C60.3908 77.0013 60.1455 77.2468 59.8455 77.2468Z" fill="#A8BBDE"/>
<path d="M18.7083 70.3493H10.6934V70.622H18.7083V70.3493Z" fill="#3913B8"/>
<path d="M28.877 72.503H10.6934V72.7755H28.877V72.503Z" fill="#3913B8"/>
<path d="M53.2478 72.503H30.8115V72.7755H53.2478V72.503Z" fill="#3913B8"/>
<path d="M57.637 74.2478H10.5835V74.5205H57.637V74.2478Z" fill="#3913B8"/>
<path d="M4.50438 76.3473C2.3507 76.3473 0.605955 74.6025 0.605955 72.4488C0.605955 70.295 2.3507 68.5503 4.50438 68.5503C6.65806 68.5503 8.4028 70.295 8.4028 72.4488C8.4028 74.6025 6.65806 76.3473 4.50438 76.3473ZM4.50438 68.7958C2.487 68.7958 0.87858 70.4313 0.87858 72.4215C0.87858 74.4115 2.51428 76.0473 4.50438 76.0473C6.52173 76.0473 8.13018 74.4115 8.13018 72.4215C8.13018 70.4313 6.52173 68.7958 4.50438 68.7958Z" fill="#00376E"/>
<path d="M71.5955 30.0025H50.2768V32.1833H71.5955V30.0025Z" fill="#3913B8"/>
<path d="M79.1193 34.6368H50.331V35.6728H79.1193V34.6368Z" fill="#E9E1FF"/>
<path d="M79.12 37.8268H47.6055V38.8625H79.12V37.8268Z" fill="#E9E1FF"/>
<path d="M71.9495 41.0435H50.331V42.0795H71.9495V41.0435Z" fill="#E9E1FF"/>
<path d="M71.9495 44.2603H50.331V45.2963H71.9495V44.2603Z" fill="#E9E1FF"/>
<path d="M79.1193 47.4498H50.331V48.4858H79.1193V47.4498Z" fill="#E9E1FF"/>
<path d="M68.4055 50.6665H50.331V51.7025H68.4055V50.6665Z" fill="#E9E1FF"/>
<path d="M101.72 107.862H100.357C100.275 107.862 100.22 107.807 100.22 107.725C100.22 107.644 100.275 107.589 100.357 107.589H101.72C101.802 107.589 101.856 107.644 101.856 107.725C101.856 107.807 101.802 107.862 101.72 107.862ZM98.9935 107.862H97.6305C97.5485 107.862 97.494 107.807 97.494 107.725C97.494 107.644 97.5485 107.589 97.6305 107.589H98.9935C99.0753 107.589 99.1298 107.644 99.1298 107.725C99.1298 107.807 99.0753 107.862 98.9935 107.862ZM96.2673 107.862H94.9043C94.8225 107.862 94.768 107.807 94.768 107.725C94.768 107.644 94.8225 107.589 94.9043 107.589H96.2673C96.349 107.589 96.4035 107.644 96.4035 107.725C96.4035 107.807 96.349 107.862 96.2673 107.862ZM93.5413 107.862H92.178C92.0963 107.862 92.0418 107.807 92.0418 107.725C92.0418 107.644 92.0963 107.589 92.178 107.589H93.5413C93.623 107.589 93.6775 107.644 93.6775 107.725C93.6775 107.807 93.623 107.862 93.5413 107.862ZM90.815 107.862H89.452C89.37 107.862 89.3155 107.807 89.3155 107.725C89.3155 107.644 89.37 107.589 89.452 107.589H90.815C90.8968 107.589 90.9513 107.644 90.9513 107.725C90.9513 107.807 90.8968 107.862 90.815 107.862ZM88.0888 107.862H86.7258C86.644 107.862 86.5895 107.807 86.5895 107.725C86.5895 107.644 86.644 107.589 86.7258 107.589H88.0888C88.1705 107.589 88.225 107.644 88.225 107.725C88.225 107.807 88.1705 107.862 88.0888 107.862ZM85.3628 107.862H83.9995C83.9178 107.862 83.8633 107.807 83.8633 107.725C83.8633 107.644 83.9178 107.589 83.9995 107.589H85.3628C85.4445 107.589 85.499 107.644 85.499 107.725C85.499 107.807 85.4445 107.862 85.3628 107.862ZM82.6365 107.862H81.2735C81.1915 107.862 81.137 107.807 81.137 107.725C81.137 107.644 81.1915 107.589 81.2735 107.589H82.6365C82.7183 107.589 82.7728 107.644 82.7728 107.725C82.7728 107.807 82.7183 107.862 82.6365 107.862ZM79.9103 107.862H78.5473C78.4655 107.862 78.411 107.807 78.411 107.725C78.411 107.644 78.4655 107.589 78.5473 107.589H79.9103C79.992 107.589 80.0465 107.644 80.0465 107.725C80.0465 107.807 79.992 107.862 79.9103 107.862ZM77.1843 107.862H75.821C75.7393 107.862 75.6848 107.807 75.6848 107.725C75.6848 107.644 75.7393 107.589 75.821 107.589H77.1843C77.266 107.589 77.3205 107.644 77.3205 107.725C77.3205 107.807 77.266 107.862 77.1843 107.862ZM74.458 107.862H73.2585C73.204 107.862 73.1495 107.862 73.095 107.862C73.013 107.862 72.9585 107.807 72.9585 107.725C72.9585 107.644 73.0403 107.589 73.095 107.589C73.1495 107.589 73.204 107.589 73.2313 107.589H74.4308C74.5125 107.589 74.567 107.644 74.567 107.725C74.567 107.807 74.5398 107.862 74.458 107.862ZM71.8135 107.48C71.7863 107.48 71.759 107.48 71.7318 107.453C71.323 107.207 70.9685 106.88 70.6958 106.471C70.6413 106.417 70.6685 106.335 70.7233 106.281C70.7778 106.226 70.8595 106.253 70.914 106.308C71.1593 106.662 71.4593 106.989 71.8408 107.207C71.8955 107.235 71.9228 107.317 71.8955 107.398C71.8955 107.453 71.8408 107.48 71.8135 107.48ZM70.396 105.272C70.3143 105.272 70.2598 105.217 70.2598 105.136C70.2598 105.027 70.2325 104.945 70.2325 104.836V103.745C70.2325 103.663 70.287 103.609 70.3688 103.609C70.4505 103.609 70.505 103.663 70.505 103.745V104.836C70.505 104.917 70.505 105.027 70.505 105.108C70.5323 105.19 70.4778 105.245 70.396 105.272ZM70.3688 102.546C70.287 102.546 70.2325 102.491 70.2325 102.409V101.046C70.2325 100.965 70.287 100.91 70.3688 100.91C70.4505 100.91 70.505 100.965 70.505 101.046V102.409C70.505 102.464 70.4505 102.546 70.3688 102.546ZM70.3688 99.8195C70.287 99.8195 70.2325 99.765 70.2325 99.683V98.32C70.2325 98.2383 70.287 98.1838 70.3688 98.1838C70.4505 98.1838 70.505 98.2383 70.505 98.32V99.683C70.505 99.7378 70.4505 99.8195 70.3688 99.8195ZM70.3688 97.0933C70.287 97.0933 70.2325 97.0388 70.2325 96.957V95.5938C70.2325 95.512 70.287 95.4575 70.3688 95.4575C70.4505 95.4575 70.505 95.512 70.505 95.5938V96.957C70.505 97.0115 70.4505 97.0933 70.3688 97.0933ZM70.3688 94.367C70.287 94.367 70.2325 94.3125 70.2325 94.2308V92.8678C70.2325 92.786 70.287 92.7315 70.3688 92.7315C70.4505 92.7315 70.505 92.786 70.505 92.8678V94.2308C70.505 94.2853 70.4505 94.367 70.3688 94.367ZM70.3688 91.641C70.287 91.641 70.2325 91.5865 70.2325 91.5048V90.1415C70.2325 90.0598 70.287 90.0053 70.3688 90.0053C70.4505 90.0053 70.505 90.0598 70.505 90.1415V91.5048C70.505 91.5593 70.4505 91.641 70.3688 91.641ZM70.3688 88.9148C70.287 88.9148 70.2325 88.8603 70.2325 88.7785V87.4155C70.2325 87.3335 70.287 87.279 70.3688 87.279C70.4505 87.279 70.505 87.3335 70.505 87.4155V88.7785C70.505 88.833 70.4505 88.9148 70.3688 88.9148ZM70.3688 86.1885C70.287 86.1885 70.2325 86.134 70.2325 86.0523V84.6893C70.2325 84.6075 70.287 84.553 70.3688 84.553C70.4505 84.553 70.505 84.6075 70.505 84.6893V86.0523C70.505 86.1068 70.4505 86.1885 70.3688 86.1885ZM70.3688 83.4625C70.287 83.4625 70.2325 83.408 70.2325 83.3263V81.963C70.2325 81.8813 70.287 81.8268 70.3688 81.8268C70.4505 81.8268 70.505 81.8813 70.505 81.963V83.3263C70.505 83.3808 70.4505 83.4625 70.3688 83.4625ZM70.3688 80.7363C70.287 80.7363 70.2325 80.6818 70.2325 80.6V79.237C70.2325 79.155 70.287 79.1005 70.3688 79.1005C70.4505 79.1005 70.505 79.155 70.505 79.237V80.6C70.505 80.6545 70.4505 80.7363 70.3688 80.7363ZM70.3688 78.01C70.287 78.01 70.2325 77.9555 70.2325 77.8738V76.5108C70.2325 76.429 70.287 76.3745 70.3688 76.3745C70.4505 76.3745 70.505 76.429 70.505 76.5108V77.8738C70.505 77.9283 70.4505 78.01 70.3688 78.01ZM70.3688 75.284C70.287 75.284 70.2325 75.2295 70.2325 75.1478V73.7845C70.2325 73.7028 70.287 73.6483 70.3688 73.6483C70.4505 73.6483 70.505 73.7028 70.505 73.7845V75.1478C70.505 75.2023 70.4505 75.284 70.3688 75.284ZM70.3688 72.5578C70.287 72.5578 70.2325 72.5033 70.2325 72.4215V71.0585C70.2325 70.9765 70.287 70.922 70.3688 70.922C70.4505 70.922 70.505 70.9765 70.505 71.0585V72.4215C70.505 72.476 70.4505 72.5578 70.3688 72.5578ZM70.3688 69.8315C70.287 69.8315 70.2325 69.777 70.2325 69.6953V68.3323C70.2325 68.2505 70.287 68.196 70.3688 68.196C70.4505 68.196 70.505 68.2505 70.505 68.3323V69.6953C70.505 69.7498 70.4505 69.8315 70.3688 69.8315ZM70.3688 67.1055C70.287 67.1055 70.2325 67.051 70.2325 66.9693V65.606C70.2325 65.5243 70.287 65.4698 70.3688 65.4698C70.4505 65.4698 70.505 65.5243 70.505 65.606V66.9693C70.505 67.0238 70.4505 67.1055 70.3688 67.1055ZM70.3688 64.3793C70.287 64.3793 70.2325 64.3248 70.2325 64.243V62.88C70.2325 62.798 70.287 62.7435 70.3688 62.7435C70.4505 62.7435 70.505 62.798 70.505 62.88V64.243C70.505 64.2975 70.4505 64.3793 70.3688 64.3793ZM70.3688 61.653C70.287 61.653 70.2325 61.5985 70.2325 61.5168V60.1538C70.2325 60.072 70.287 60.0175 70.3688 60.0175C70.4505 60.0175 70.505 60.072 70.505 60.1538V61.5168C70.505 61.5713 70.4505 61.653 70.3688 61.653ZM70.3688 58.927C70.287 58.927 70.2325 58.8725 70.2325 58.7908V57.4275C70.2325 57.3458 70.287 57.2913 70.3688 57.2913C70.4505 57.2913 70.505 57.3458 70.505 57.4275V58.7908C70.505 58.8453 70.4505 58.927 70.3688 58.927ZM70.4778 56.2008H70.4505C70.3688 56.1735 70.3415 56.119 70.3415 56.0373C70.4778 55.5738 70.6958 55.1375 71.023 54.8105C71.0775 54.756 71.1593 54.756 71.2138 54.8105C71.2683 54.865 71.2683 54.9468 71.2138 55.0013C70.914 55.3285 70.6958 55.71 70.5868 56.119C70.5868 56.1463 70.5323 56.2008 70.4778 56.2008ZM72.2225 54.2653C72.168 54.2653 72.1135 54.238 72.0863 54.1835C72.059 54.1018 72.0863 54.047 72.168 54.0198C72.4953 53.8835 72.8495 53.829 73.2313 53.829H73.5583C73.6403 53.829 73.6948 53.8835 73.6948 53.9653C73.6948 54.047 73.6403 54.1018 73.5583 54.1018H73.2313C72.904 54.1018 72.577 54.1563 72.277 54.2653C72.277 54.2653 72.2498 54.2653 72.2225 54.2653ZM81.764 54.0743H80.401C80.3193 54.0743 80.2648 54.0198 80.2648 53.938C80.2648 53.8563 80.3193 53.8018 80.401 53.8018H81.764C81.846 53.8018 81.9005 53.8563 81.9005 53.938C81.9005 54.0198 81.8188 54.0743 81.764 54.0743ZM79.038 54.0743H77.6748C77.593 54.0743 77.5385 54.0198 77.5385 53.938C77.5385 53.8563 77.593 53.8018 77.6748 53.8018H79.038C79.1198 53.8018 79.1743 53.8563 79.1743 53.938C79.1743 54.0198 79.0925 54.0743 79.038 54.0743ZM76.3118 54.0743H74.9488C74.867 54.0743 74.8125 54.0198 74.8125 53.938C74.8125 53.8563 74.867 53.8018 74.9488 53.8018H76.3118C76.3935 53.8018 76.448 53.8563 76.448 53.938C76.448 54.0198 76.3663 54.0743 76.3118 54.0743Z" fill="#00376E"/>
<path d="M80.3735 61.2443H74.5395V67.0783H80.3735V61.2443Z" fill="#E9E1FF"/>
<path d="M78.3013 66.0695L76.7745 63.9703C76.6928 63.8613 76.72 63.6703 76.8293 63.5885C76.9383 63.5068 77.129 63.534 77.2108 63.643L78.383 65.2515L82.5268 61.6803C82.6358 61.5713 82.7995 61.5985 82.9085 61.7075C83.0175 61.8165 82.9903 61.9803 82.8813 62.0893L78.3013 66.0695Z" fill="#3913B8"/>
<path d="M80.3735 72.2578H74.5395V78.0918H80.3735V72.2578Z" fill="#E9E1FF"/>
<path d="M78.3013 77.0833L76.7745 74.9843C76.6928 74.875 76.72 74.6843 76.8293 74.6025C76.9383 74.5208 77.129 74.548 77.2108 74.657L78.383 76.2655L82.5268 72.6943C82.6358 72.5853 82.7995 72.6125 82.9085 72.7215C83.0175 72.8305 82.9903 72.994 82.8813 73.103L78.3013 77.0833Z" fill="#3913B8"/>
<path d="M80.3735 83.2715H74.5395V89.1055H80.3735V83.2715Z" fill="#E9E1FF"/>
<path d="M78.3013 88.097L76.7745 85.9978C76.6928 85.8888 76.72 85.698 76.8293 85.6163C76.9383 85.5345 77.129 85.5618 77.2108 85.6708L78.383 87.279L82.5268 83.7078C82.6358 83.5988 82.7995 83.626 82.9085 83.735C83.0175 83.8443 82.9903 84.0078 82.8813 84.1168L78.3013 88.097Z" fill="#3913B8"/>
<path d="M80.3735 94.2853H74.5395V100.119H80.3735V94.2853Z" fill="#E9E1FF"/>
<path d="M78.3013 99.1108L76.7745 97.0115C76.6928 96.9025 76.72 96.7115 76.8293 96.6298C76.9383 96.548 77.129 96.5753 77.2108 96.6843L78.383 98.2928L82.5268 94.7215C82.6358 94.6125 82.7995 94.6398 82.9085 94.7488C83.0175 94.8578 82.9903 95.0215 82.8813 95.1305L78.3013 99.1108Z" fill="#3913B8"/>
<path d="M106.981 62.3073H85.2265V66.0148H106.981V62.3073Z" fill="#3913B8"/>
<path d="M107.145 77.1648H85.1178V73.1845H107.145V77.1648ZM85.363 76.8923H106.845V73.4573H85.363V76.8923Z" fill="#3913B8"/>
<path d="M107.145 88.1788H85.1178V84.1985H107.145V88.1788ZM85.363 87.906H106.845V84.471H85.363V87.906Z" fill="#3913B8"/>
<path d="M188.275 137.386H163.413V133.406H188.275V137.386ZM163.658 137.113H187.975V133.678H163.658V137.113Z" fill="#3913B8"/>
<path d="M128.354 131.389H111.179V127.408H128.354V131.389ZM111.425 131.116H128.054V127.681H111.425V131.116Z" fill="#3913B8"/>
<path d="M128.354 137.386H106.872V133.406H128.354V137.386ZM107.145 137.113H128.082V133.678H107.145V137.113Z" fill="#3913B8"/>
<path d="M106.981 95.3488H85.2265V99.0563H106.981V95.3488Z" fill="#3913B8"/>
<path d="M21.1883 13.1275H12.3828V11.41C12.3828 10.0742 13.446 9.01098 14.7819 9.01098H18.7893C20.1251 9.01098 21.1883 10.0742 21.1883 11.41V13.1275Z" fill="#3913B8"/>
<path d="M16.7718 8.02951C17.9613 8.02951 18.9255 7.06528 18.9255 5.87586C18.9255 4.68641 17.9613 3.72218 16.7718 3.72218C15.5824 3.72218 14.6182 4.68641 14.6182 5.87586C14.6182 7.06528 15.5824 8.02951 16.7718 8.02951Z" fill="#3913B8"/>
<path d="M100.957 42.8425H95.7495L95.3678 39.7348C95.3678 39.1623 94.1138 36 92.5325 36.5725C91.9873 36.7633 91.6603 37.3358 91.6603 37.9083V42.161C91.6603 43.1153 90.8695 43.9058 89.9155 43.9058H88.416V53.0658H91.6058C92.2328 53.0658 92.8325 53.311 93.2685 53.7473L93.323 53.8018C94.0048 54.4833 100.52 55.4375 102.101 54.238C102.729 53.7473 103.219 53.1748 103.219 52.575V45.1325C103.274 43.8785 102.238 42.8425 100.957 42.8425Z" fill="#3913B8"/>
<path d="M89.8065 42.788H85.2265V54.2108H89.8065V42.788Z" fill="#E9E1FF"/>
<path d="M186.476 126.836H184.268L184.105 125.527C184.105 125.282 183.586 123.946 182.905 124.191C182.687 124.273 182.523 124.518 182.523 124.764V126.563C182.523 126.972 182.196 127.299 181.787 127.299H181.16V131.17H182.523C182.796 131.17 183.041 131.279 183.232 131.47L183.259 131.497C183.532 131.77 186.312 132.179 186.994 131.688C187.267 131.47 187.485 131.252 187.485 130.979V127.817C187.458 127.272 187.022 126.836 186.476 126.836Z" fill="#00376E"/>
<path d="M181.733 126.808H179.797V131.661H181.733V126.808Z" fill="#00376E"/>
<path d="M79.5285 9.09248C80.1158 9.09248 80.5918 8.61646 80.5918 8.02928C80.5918 7.44208 80.1158 6.96608 79.5285 6.96608C78.9413 6.96608 78.4653 7.44208 78.4653 8.02928C78.4653 8.61646 78.9413 9.09248 79.5285 9.09248Z" fill="#00376E"/>
<path d="M103.682 23.3778C104.029 23.3778 104.309 23.097 104.309 22.7508C104.309 22.4045 104.029 22.1238 103.682 22.1238C103.336 22.1238 103.055 22.4045 103.055 22.7508C103.055 23.097 103.336 23.3778 103.682 23.3778Z" fill="#00376E"/>
<path d="M106.3 23.3775C106.646 23.3775 106.927 23.0968 106.927 22.7505C106.927 22.4043 106.646 22.1235 106.3 22.1235C105.954 22.1235 105.673 22.4043 105.673 22.7505C105.673 23.0968 105.954 23.3775 106.3 23.3775Z" fill="#3913B8"/>
<path d="M108.89 23.3775C109.236 23.3775 109.517 23.0968 109.517 22.7505C109.517 22.4043 109.236 22.1235 108.89 22.1235C108.544 22.1235 108.263 22.4043 108.263 22.7505C108.263 23.0968 108.544 23.3775 108.89 23.3775Z" fill="#E9E1FF"/>
<path d="M79.5285 22.7508C79.4465 22.7508 79.392 22.6963 79.392 22.6145V21.2513C79.392 21.1695 79.4465 21.115 79.5285 21.115C79.6103 21.115 79.6648 21.1695 79.6648 21.2513V22.6145C79.6648 22.6963 79.583 22.7508 79.5285 22.7508ZM79.5285 20.0245C79.4465 20.0245 79.392 19.97 79.392 19.8883V18.5252C79.392 18.4434 79.4465 18.3889 79.5285 18.3889C79.6103 18.3889 79.6648 18.4434 79.6648 18.5252V19.8883C79.6648 19.97 79.583 20.0245 79.5285 20.0245ZM79.5285 17.2984C79.4465 17.2984 79.392 17.2439 79.392 17.1621V15.799C79.392 15.7172 79.4465 15.6627 79.5285 15.6627C79.6103 15.6627 79.6648 15.7172 79.6648 15.799V17.1621C79.6648 17.2439 79.583 17.2984 79.5285 17.2984ZM79.5285 14.5722C79.4465 14.5722 79.392 14.5177 79.392 14.4359V13.0728C79.392 12.9911 79.4465 12.9365 79.5285 12.9365C79.6103 12.9365 79.6648 12.9911 79.6648 13.0728V14.4359C79.6648 14.5177 79.583 14.5722 79.5285 14.5722Z" fill="#00376E"/>
<path d="M79.5283 13.2091C79.4465 13.2091 79.392 13.1546 79.392 13.0728V8.16568H71.2408C71.159 8.16568 71.1045 8.11116 71.1045 8.02938C71.1045 7.94761 71.159 7.89308 71.2408 7.89308H79.6648V13.0728C79.6648 13.1546 79.5828 13.2091 79.5283 13.2091Z" fill="#00376E"/>
<path d="M71.2142 8.16568H70.2057C70.1237 8.16568 70.0693 8.11116 70.0693 8.02938C70.0693 7.94761 70.1237 7.89308 70.2057 7.89308H71.2142C71.296 7.89308 71.3508 7.94761 71.3508 8.02938C71.3508 8.11116 71.296 8.16568 71.2142 8.16568ZM68.8425 8.16568H67.4795C67.3978 8.16568 67.3432 8.11116 67.3432 8.02938C67.3432 7.94761 67.3978 7.89308 67.4795 7.89308H68.8425C68.9242 7.89308 68.9788 7.94761 68.9788 8.02938C68.9788 8.11116 68.9242 8.16568 68.8425 8.16568ZM66.1165 8.16568H64.7533C64.6715 8.16568 64.617 8.11116 64.617 8.02938C64.617 7.94761 64.6715 7.89308 64.7533 7.89308H66.1165C66.1982 7.89308 66.2527 7.94761 66.2527 8.02938C66.2527 8.11116 66.1982 8.16568 66.1165 8.16568ZM63.3903 8.16568H62.0273C61.9453 8.16568 61.8908 8.11116 61.8908 8.02938C61.8908 7.94761 61.9453 7.89308 62.0273 7.89308H63.3903C63.472 7.89308 63.5265 7.94761 63.5265 8.02938C63.5265 8.11116 63.472 8.16568 63.3903 8.16568ZM60.664 8.16568H59.301C59.2193 8.16568 59.1648 8.11116 59.1648 8.02938C59.1648 7.94761 59.2193 7.89308 59.301 7.89308H60.664C60.7458 7.89308 60.8003 7.94761 60.8003 8.02938C60.8003 8.11116 60.7458 8.16568 60.664 8.16568ZM57.938 8.16568H56.5748C56.493 8.16568 56.4385 8.11116 56.4385 8.02938C56.4385 7.94761 56.493 7.89308 56.5748 7.89308H57.938C58.0198 7.89308 58.0743 7.94761 58.0743 8.02938C58.0743 8.11116 58.0198 8.16568 57.938 8.16568ZM55.2118 8.16568H53.8488C53.7668 8.16568 53.7123 8.11116 53.7123 8.02938C53.7123 7.94761 53.7668 7.89308 53.8488 7.89308H55.2118C55.2935 7.89308 55.348 7.94761 55.348 8.02938C55.348 8.11116 55.2935 8.16568 55.2118 8.16568ZM52.4855 8.16568H51.1225C51.0408 8.16568 50.9863 8.11116 50.9863 8.02938C50.9863 7.94761 51.0408 7.89308 51.1225 7.89308H52.4855C52.5673 7.89308 52.6218 7.94761 52.6218 8.02938C52.6218 8.11116 52.5673 8.16568 52.4855 8.16568ZM49.7595 8.16568H48.3963C48.3145 8.16568 48.26 8.11116 48.26 8.02938C48.26 7.94761 48.3145 7.89308 48.3963 7.89308H49.7595C49.8413 7.89308 49.8958 7.94761 49.8958 8.02938C49.8958 8.11116 49.8413 8.16568 49.7595 8.16568ZM47.0333 8.16568H45.6703C45.5883 8.16568 45.5338 8.11116 45.5338 8.02938C45.5338 7.94761 45.5883 7.89308 45.6703 7.89308H47.0333C47.115 7.89308 47.1695 7.94761 47.1695 8.02938C47.1695 8.11116 47.115 8.16568 47.0333 8.16568ZM44.307 8.16568H42.944C42.8623 8.16568 42.8078 8.11116 42.8078 8.02938C42.8078 7.94761 42.8623 7.89308 42.944 7.89308H44.307C44.3888 7.89308 44.4433 7.94761 44.4433 8.02938C44.4433 8.11116 44.3888 8.16568 44.307 8.16568ZM41.581 8.16568H40.2178C40.136 8.16568 40.0815 8.11116 40.0815 8.02938C40.0815 7.94761 40.136 7.89308 40.2178 7.89308H41.581C41.6628 7.89308 41.7173 7.94761 41.7173 8.02938C41.7173 8.11116 41.6628 8.16568 41.581 8.16568ZM38.8548 8.16568H37.4918C37.4098 8.16568 37.3553 8.11116 37.3553 8.02938C37.3553 7.94761 37.4098 7.89308 37.4918 7.89308H38.8548C38.9365 7.89308 38.991 7.94761 38.991 8.02938C38.991 8.11116 38.9365 8.16568 38.8548 8.16568ZM36.1285 8.16568H34.7655C34.6838 8.16568 34.6293 8.11116 34.6293 8.02938C34.6293 7.94761 34.6838 7.89308 34.7655 7.89308H36.1285C36.2103 7.89308 36.265 7.94761 36.265 8.02938C36.265 8.11116 36.2103 8.16568 36.1285 8.16568ZM33.4025 8.16568H32.0393C31.9575 8.16568 31.903 8.11116 31.903 8.02938C31.903 7.94761 31.9575 7.89308 32.0393 7.89308H33.4025C33.4843 7.89308 33.5388 7.94761 33.5388 8.02938C33.5388 8.11116 33.4843 8.16568 33.4025 8.16568ZM30.6763 8.16568H29.3133C29.2313 8.16568 29.1768 8.11116 29.1768 8.02938C29.1768 7.94761 29.2313 7.89308 29.3133 7.89308H30.6763C30.758 7.89308 30.8125 7.94761 30.8125 8.02938C30.8125 8.11116 30.758 8.16568 30.6763 8.16568ZM27.95 8.16568H26.587C26.5053 8.16568 26.4508 8.11116 26.4508 8.02938C26.4508 7.94761 26.5053 7.89308 26.587 7.89308H27.95C28.0318 7.89308 28.0865 7.94761 28.0865 8.02938C28.0865 8.11116 28.0318 8.16568 27.95 8.16568Z" fill="#00376E"/>
<path d="M115.623 38.4805H102.21V26.8943C102.21 26.8125 102.265 26.758 102.346 26.758C102.428 26.758 102.483 26.8125 102.483 26.8943V38.208H115.623C115.705 38.208 115.759 38.2625 115.759 38.3443C115.759 38.426 115.705 38.4805 115.623 38.4805Z" fill="#00376E"/>
<path d="M120.394 40.4708H115.623C115.541 40.4708 115.486 40.4163 115.486 40.3345C115.486 40.2528 115.541 40.1983 115.623 40.1983H120.394C120.475 40.1983 120.53 40.2528 120.53 40.3345C120.53 40.4163 120.475 40.4708 120.394 40.4708Z" fill="#00376E"/>
<path d="M126.827 38.481H120.393C120.311 38.481 120.257 38.4265 120.257 38.3445C120.257 38.2628 120.311 38.2083 120.393 38.2083H126.554V24.4685H98.8018C98.72 24.4685 98.6655 24.414 98.6655 24.332C98.6655 24.2503 98.72 24.1958 98.8018 24.1958H126.827V38.481Z" fill="#00376E"/>
<path d="M95.8585 24.4685H79.6925C79.6108 24.4685 79.5563 24.414 79.5563 24.332C79.5563 24.2503 79.6108 24.1958 79.6925 24.1958H95.8585C95.9405 24.1958 95.995 24.2503 95.995 24.332C95.995 24.414 95.9133 24.4685 95.8585 24.4685Z" fill="#00376E"/>
<path d="M118.894 27.6305H105.154C105.072 27.6305 105.018 27.576 105.018 27.4943C105.018 27.4125 105.072 27.358 105.154 27.358H118.894C118.976 27.358 119.03 27.4125 119.03 27.4943C119.03 27.576 118.976 27.6305 118.894 27.6305Z" fill="#00376E"/>
<path d="M123.556 29.1575H105.264C105.182 29.1575 105.128 29.1028 105.128 29.021C105.128 28.9393 105.182 28.8848 105.264 28.8848H123.556C123.638 28.8848 123.693 28.9393 123.693 29.021C123.693 29.1028 123.638 29.1575 123.556 29.1575Z" fill="#00376E"/>
<path d="M123.556 30.711H105.264C105.182 30.711 105.128 30.6565 105.128 30.5748C105.128 30.493 105.182 30.4385 105.264 30.4385H123.556C123.638 30.4385 123.693 30.493 123.693 30.5748C123.693 30.6565 123.638 30.711 123.556 30.711Z" fill="#00376E"/>
<path d="M120.366 22.8325H111.015C110.934 22.8325 110.879 22.778 110.879 22.696C110.879 22.6143 110.934 22.5598 111.015 22.5598H120.366C120.448 22.5598 120.502 22.6143 120.502 22.696C120.502 22.778 120.448 22.8325 120.366 22.8325Z" fill="#00376E"/>
<path d="M100.029 113.014H70.3688V114.323H100.029V113.014Z" fill="#00376E"/>
<path d="M100.029 115.713H70.3688V117.022H100.029V115.713Z" fill="#00376E"/>
<path d="M107.008 120.702H70.3688V122.01H107.008V120.702Z" fill="#00376E"/>
<path d="M107.008 123.401H70.3688V124.71H107.008V123.401Z" fill="#00376E"/>
<path d="M195.363 116.095H186.367C186.285 116.095 186.231 116.04 186.231 115.958C186.231 115.877 186.285 115.822 186.367 115.822H195.363C195.445 115.822 195.5 115.877 195.5 115.958C195.5 116.04 195.445 116.095 195.363 116.095Z" fill="#00376E"/>
<path d="M186.312 43.2243H170.664C169.655 43.2243 168.837 42.4065 168.837 41.3978V38.1263C168.837 37.1178 169.655 36.2998 170.664 36.2998H186.312C187.321 36.2998 188.139 37.1178 188.139 38.1263V41.3978C188.139 42.4065 187.321 43.2243 186.312 43.2243Z" fill="#A8BBDE"/>
<path d="M114.151 36.5453H110.743V33.1375H114.151V36.5453ZM110.988 36.2725H113.851V33.41H110.988V36.2725Z" fill="#00376E"/>
<path d="M118.922 36.545H115.514V33.1373H118.922V36.545ZM115.759 36.2723H118.622V33.4098H115.759V36.2723Z" fill="#00376E"/>
<path d="M123.693 36.5453H120.285V33.1375H123.693V36.5453ZM120.53 36.2725H123.393V33.41H120.53V36.2725Z" fill="#00376E"/>
<path d="M108.89 33.4098H105.264C105.182 33.4098 105.128 33.3553 105.128 33.2735C105.128 33.1918 105.182 33.1373 105.264 33.1373H108.89C108.971 33.1373 109.026 33.1918 109.026 33.2735C109.026 33.3553 108.971 33.4098 108.89 33.4098Z" fill="#00376E"/>
<path d="M108.889 34.9913H105.263C105.182 34.9913 105.127 34.9368 105.127 34.855C105.127 34.7733 105.182 34.7188 105.263 34.7188H108.889C108.971 34.7188 109.025 34.7733 109.025 34.855C109.025 34.9368 108.971 34.9913 108.889 34.9913Z" fill="#00376E"/>
<path d="M108.889 36.545H105.263C105.182 36.545 105.127 36.4905 105.127 36.4088C105.127 36.327 105.182 36.2725 105.263 36.2725H108.889C108.971 36.2725 109.025 36.327 109.025 36.4088C109.025 36.4905 108.971 36.545 108.889 36.545Z" fill="#00376E"/>
<path d="M120.394 41.5885H115.623C115.541 41.5885 115.486 41.534 115.486 41.4523C115.486 41.3705 115.541 41.316 115.623 41.316H120.394C120.475 41.316 120.53 41.3705 120.53 41.4523C120.53 41.534 120.475 41.5885 120.394 41.5885Z" fill="#00376E"/>
<path d="M120.394 43.9328H115.623C115.541 43.9328 115.486 43.8783 115.486 43.7965C115.486 43.7148 115.541 43.6603 115.623 43.6603H120.394C120.475 43.6603 120.53 43.7148 120.53 43.7965C120.53 43.8783 120.475 43.9328 120.394 43.9328Z" fill="#00376E"/>
<path d="M120.394 45.051H115.623C115.541 45.051 115.486 44.9965 115.486 44.9148C115.486 44.8328 115.541 44.7783 115.623 44.7783H120.394C120.475 44.7783 120.53 44.8328 120.53 44.9148C120.53 44.9965 120.475 45.051 120.394 45.051Z" fill="#00376E"/>
<path d="M113.033 51.839H108.262C108.181 51.839 108.126 51.7845 108.126 51.7028C108.126 51.621 108.181 51.5665 108.262 51.5665H113.033C113.115 51.5665 113.17 51.621 113.17 51.7028C113.17 51.7845 113.115 51.839 113.033 51.839Z" fill="#00376E"/>
<path d="M113.033 52.9568H108.262C108.181 52.9568 108.126 52.9023 108.126 52.8205C108.126 52.7385 108.181 52.684 108.262 52.684H113.033C113.115 52.684 113.17 52.7385 113.17 52.8205C113.17 52.9023 113.115 52.9568 113.033 52.9568Z" fill="#00376E"/>
<path d="M117.231 51.839H114.342C114.26 51.839 114.205 51.7845 114.205 51.7028C114.205 51.621 114.26 51.5665 114.342 51.5665H117.231C117.313 51.5665 117.368 51.621 117.368 51.7028C117.368 51.7845 117.313 51.839 117.231 51.839Z" fill="#00376E"/>
<path d="M117.231 52.9568H114.342C114.26 52.9568 114.205 52.9023 114.205 52.8205C114.205 52.7385 114.26 52.684 114.342 52.684H117.231C117.313 52.684 117.368 52.7385 117.368 52.8205C117.368 52.9023 117.313 52.9568 117.231 52.9568Z" fill="#00376E"/>
<path d="M120.394 54.4833H115.623C115.541 54.4833 115.486 54.4288 115.486 54.347C115.486 54.2653 115.541 54.2108 115.623 54.2108H120.394C120.475 54.2108 120.53 54.2653 120.53 54.347C120.53 54.4288 120.475 54.4833 120.394 54.4833Z" fill="#00376E"/>
<path d="M120.394 55.601H115.623C115.541 55.601 115.486 55.5465 115.486 55.4648C115.486 55.383 115.541 55.3283 115.623 55.3283H120.394C120.475 55.3283 120.53 55.383 120.53 55.4648C120.53 55.5465 120.475 55.601 120.394 55.601Z" fill="#00376E"/>
<path d="M114.533 45.0508H108.126V40.1983H114.533V45.0508ZM108.399 44.7783H114.26V40.4708H108.399V44.7783Z" fill="#00376E"/>
<path d="M120.53 49.6853H108.126V47.15H120.53V49.6853ZM108.399 49.4125H120.258V47.4225H108.399V49.4125Z" fill="#00376E"/>
<path d="M187.375 103.5C187.293 103.5 187.239 103.445 187.239 103.363V48.0495C187.239 47.9675 187.293 47.913 187.375 47.913C187.457 47.913 187.512 47.9675 187.512 48.0495V103.363C187.512 103.418 187.457 103.5 187.375 103.5Z" fill="#00376E"/>
<path d="M187.375 103.364C186.857 103.364 186.448 102.955 186.448 102.464V83.6533C186.448 83.1625 186.857 82.7538 187.348 82.7538H187.375C187.866 82.7538 188.275 83.1625 188.275 83.6533V102.464C188.302 102.955 187.893 103.364 187.375 103.364Z" fill="#E9E1FF"/>
<path d="M188.084 48.1858H186.721C186.639 48.1858 186.585 48.1313 186.585 48.0495C186.585 47.9675 186.639 47.913 186.721 47.913H188.084C188.166 47.913 188.22 47.9675 188.22 48.0495C188.22 48.1313 188.166 48.1858 188.084 48.1858Z" fill="#00376E"/>
<path d="M188.112 103.636H186.749C186.667 103.636 186.612 103.581 186.612 103.5C186.612 103.418 186.667 103.363 186.749 103.363H188.112C188.194 103.363 188.248 103.418 188.248 103.5C188.248 103.581 188.194 103.636 188.112 103.636Z" fill="#00376E"/>
<path d="M181.133 115.959C185.385 115.959 185.712 106.799 185.712 106.799C182.795 107.18 180.178 110.016 180.178 110.016C180.178 110.016 184.84 104.481 180.969 96.1665C176.525 100.747 177.697 107.944 177.697 107.944C176.607 104.427 174.262 102.082 174.262 102.082C171.536 107.289 175.816 113.641 175.816 113.641C175.816 113.641 173.717 112.933 172.409 112.524C173.254 116.258 175.816 115.931 175.816 115.931L181.133 115.959Z" fill="#A8BBDE"/>
<path d="M44.47 115.113H37.082V119.83H44.47V115.113Z" fill="#A8BBDE"/>
<path d="M17.8077 22.7235H12.2736C12.0282 22.7235 11.8374 22.5325 11.8374 22.2873C11.8374 22.042 12.0282 21.851 12.2736 21.851H17.8077C18.0531 21.851 18.2439 22.042 18.2439 22.2873C18.2439 22.5325 18.0531 22.7235 17.8077 22.7235Z" fill="#3913B8"/>
<path d="M50.0583 22.7235H44.524C44.2788 22.7235 44.088 22.5325 44.088 22.2873C44.088 22.042 44.2788 21.851 44.524 21.851H50.0583C50.3035 21.851 50.4945 22.042 50.4945 22.2873C50.4945 22.5325 50.3035 22.7235 50.0583 22.7235Z" fill="#3913B8"/>
<path d="M12.0829 122.147H3.7408C3.65903 122.147 3.6045 122.092 3.6045 122.01C3.6045 121.929 3.65903 121.874 3.7408 121.874H12.0829C12.1647 121.874 12.2192 121.929 12.2192 122.01C12.2192 122.092 12.1647 122.147 12.0829 122.147Z" fill="#3913B8"/>
<path d="M11.1017 130.707H6.00373C5.70385 130.707 5.4585 130.461 5.4585 130.162V125.064C5.4585 124.764 5.70385 124.519 6.00373 124.519H11.1017C11.4015 124.519 11.6469 124.764 11.6469 125.064V130.162C11.6469 130.461 11.4015 130.707 11.1017 130.707Z" fill="#F2F2F2"/>
<path d="M44.4428 10.1558H26.5318V11.6279H44.4428V10.1558Z" fill="#A8BBDE"/>
<path d="M44.4428 12.6641H26.5318V14.1362H44.4428V12.6641Z" fill="#A8BBDE"/>
<path d="M184.458 116.095H147.9C147.819 116.095 147.764 116.04 147.764 115.958C147.764 115.877 147.819 115.822 147.9 115.822H184.458C184.54 115.822 184.595 115.877 184.595 115.958C184.595 116.04 184.54 116.095 184.458 116.095Z" fill="#00376E"/>
</svg>
